<svg width="108" height="110" viewBox="0 0 108 110" fill="none" xmlns="http://www.w3.org/2000/svg">
<path d="M81.4922 34.6157H90.948C93.7392 34.6157 96 36.7607 96 39.4089V77.3124C96 79.9607 93.7392 82.1057 90.948 82.1057H19.052C16.2608 82.1057 14 79.9607 14 77.3124V39.4089C14 36.7607 16.2608 34.6157 19.052 34.6157H32.1508" fill="white"/>
<path d="M14 68.9968V39.4089C14 36.7607 16.2608 34.6157 19.052 34.6157H32.1508" stroke="black" stroke-width="3.58763" stroke-linecap="round" stroke-linejoin="round"/>
<path d="M81.4922 34.6157H90.948C93.7392 34.6157 96 36.7607 96 39.4089V77.3124C96 79.9607 93.7392 82.1057 90.948 82.1057H19.052C16.2608 82.1057 14 79.9607 14 77.3124V73.6934" stroke="black" stroke-width="3.58763" stroke-linecap="round" stroke-linejoin="round"/>
<path d="M44.7939 91.6866V82.1104H65.2055V91.6866" fill="white"/>
<path d="M44.7939 91.6866V82.1104H65.2055V91.6866" stroke="black" stroke-width="3.58763" stroke-linecap="round" stroke-linejoin="round"/>
<path d="M65.2056 91.6865H69.6094C73.1667 91.6865 76.0543 94.4262 76.0543 97.8013H33.9453C33.9453 94.4262 36.8329 91.6865 40.3902 91.6865H44.794" fill="white"/>
<path d="M65.2056 91.6865H69.6094C73.1667 91.6865 76.0543 94.4262 76.0543 97.8013H33.9453C33.9453 94.4262 36.8329 91.6865 40.3902 91.6865H44.794" stroke="black" stroke-width="3.58763" stroke-linecap="round" stroke-linejoin="round"/>
<path d="M30.6562 48.1767V13.8312C30.6562 12.2657 31.9902 11 33.6403 11H71.8973L85.5747 23.9768V68.8896C85.5747 70.4552 84.2407 71.7208 82.5907 71.7208H67.8043" fill="white"/>
<path d="M85.5741 59.7759V68.8845C85.5741 70.4501 84.2401 71.7157 82.5901 71.7157H67.8037" stroke="black" stroke-width="1.79381" stroke-linecap="round" stroke-linejoin="round"/>
<path d="M30.6562 48.1767V13.8312C30.6562 12.2657 31.9902 11 33.6403 11H71.8973L85.5747 23.9768V52.2583" stroke="black" stroke-width="3.58763" stroke-linecap="round" stroke-linejoin="round"/>
<path d="M71.8984 23.9768H85.5758L71.8984 11V23.9768Z" fill="#03B2CF"/>
<path d="M71.8984 23.9768H85.5758L71.8984 11V23.9768Z" stroke="black" stroke-width="3.58763" stroke-linecap="round" stroke-linejoin="round"/>
<path d="M54.4902 18.7363H66.3729" stroke="black" stroke-width="0.896907" stroke-miterlimit="10"/>
<path d="M54.4902 18.7363H66.3729" stroke="black" stroke-width="1.79381" stroke-linecap="round" stroke-linejoin="round"/>
<path d="M54.4902 27.6978H79.7021" stroke="black" stroke-width="1.79381" stroke-linecap="round" stroke-linejoin="round"/>
<path d="M49.8145 36.6636H79.7033" stroke="black" stroke-width="1.79381" stroke-linecap="round" stroke-linejoin="round"/>
<path d="M48.1265 25.5123C47.8854 26.6203 46.8514 27.4539 45.6139 27.4539H38.8689C37.4492 27.4539 36.3027 26.3662 36.3027 25.0192V18.6198C36.3027 17.2728 37.4492 16.1851 38.8689 16.1851H45.6139C47.0336 16.1851 48.18 17.2728 48.18 18.6198V21.5933" fill="white"/>
<path d="M48.1265 25.5123C47.8854 26.6203 46.8514 27.4539 45.6139 27.4539H38.8689C37.4492 27.4539 36.3027 26.3662 36.3027 25.0192V18.6198C36.3027 17.2728 37.4492 16.1851 38.8689 16.1851H45.6139C47.0336 16.1851 48.18 17.2728 48.18 18.6198V21.5933" stroke="#492354" stroke-width="0.896907" stroke-miterlimit="10"/>
<path d="M48.1265 25.5123C47.8854 26.6203 46.8514 27.4539 45.6139 27.4539H38.8689C37.4492 27.4539 36.3027 26.3662 36.3027 25.0192V18.6198C36.3027 17.2728 37.4492 16.1851 38.8689 16.1851H45.6139C47.0336 16.1851 48.18 17.2728 48.18 18.6198V21.5933" stroke="black" stroke-width="1.79381" stroke-linecap="round" stroke-linejoin="round"/>
<path d="M44.1737 45.895L39.9521 41.4271C39.2074 40.6392 38.1466 40.1919 37.0323 40.1919H26.3015C24.1371 40.1919 22.3799 41.8591 22.3799 43.9126V72.86C22.3799 74.9135 24.1371 76.5807 26.3015 76.5807H69.2248C71.3892 76.5807 73.1464 74.9135 73.1464 72.86V50.861C73.1464 48.8075 71.3892 47.1403 69.2248 47.1403H47.0935C45.9791 47.1403 44.9184 46.693 44.1737 45.9051" fill="#03B2CF"/>
<path d="M62.6079 76.5749H69.2297C71.394 76.5749 73.1513 74.9077 73.1513 72.8542V50.8552C73.1513 48.8017 71.394 47.1345 69.2297 47.1345H47.0983C45.984 47.1345 44.9232 46.6872 44.1786 45.8994L39.957 41.4314C39.2123 40.6436 38.1515 40.1963 37.0372 40.1963H26.3064C24.142 40.1963 22.3848 41.8635 22.3848 43.917V72.8644C22.3848 74.9179 24.142 76.5851 26.3064 76.5851H50.5003" stroke="black" stroke-width="1.79381" stroke-linecap="round" stroke-linejoin="round"/>
<path d="M57.3464 58.7903C57.4054 58.3786 57.4375 57.9669 57.4375 57.5501C57.4375 54.8155 55.1017 52.5942 52.2141 52.5942C49.98 52.5942 48.0782 53.926 47.3335 55.8016C46.5888 53.9311 44.687 52.5942 42.4529 52.5942C39.5707 52.5942 37.2295 54.8104 37.2295 57.5501C37.2295 57.9669 37.2563 58.3786 37.3099 58.7903" stroke="black" stroke-width="1.79381" stroke-linecap="round" stroke-linejoin="round"/>
<path d="M40.8301 66.1401C43.7338 69.6474 47.3339 71.8686 47.3339 71.8686C47.3339 71.8686 50.7734 69.561 53.6396 66.1401" stroke="black" stroke-width="1.79381" stroke-linecap="round" stroke-linejoin="round"/>
<path d="M28.1484 62.6377H40.5722L42.6294 57.9004L45.3992 65.1792L48.1475 59.9946L50.2101 62.6377H66.9466" stroke="black" stroke-width="1.79381" stroke-linecap="round" stroke-linejoin="round"/>
</svg>
