<svg width="96" height="99" viewBox="0 0 96 99" fill="none" xmlns="http://www.w3.org/2000/svg">
<circle cx="64.7429" cy="73.1955" r="23.2458" fill="white"/>
<path d="M60.1319 62.437V68.3925L53.2158 69.5452L53.9843 77.2298L60.1319 77.9982V84.7222H68.9692V77.9982L75.501 77.2298V69.5452L69.9297 68.3925L68.9692 62.437H60.1319Z" fill="#01A9CE" stroke="black" stroke-width="0.384228"/>
<path d="M6.14768 27.2801L2.11328 34.9646V36.1173L7.68459 34.9646L15.3691 36.1173L22.4774 41.4965L30.7383 35.541L39.9597 36.1173L48.4128 40.1517L58.5948 34.9646L66.8557 36.1173L72.8112 41.4965L76.6535 37.8463L86.8356 34.9646L93.9438 36.1173L85.6829 22.093L71.2743 12.103L55.3289 6.53174H40.7282L21.7089 14.2163L6.14768 27.2801Z" fill="white" stroke="black" stroke-width="0.384228"/>
<path fill-rule="evenodd" clip-rule="evenodd" d="M47.1779 0.260506C46.6767 0.6407 46.4648 1.59378 46.4648 3.46785V5.12522L44.4956 5.26124C31.9725 6.12575 20.3471 11.2946 11.4268 19.9639C7.15517 24.1157 3.81642 28.5772 1.26918 33.5381C-0.213943 36.4267 -0.312114 37.0021 0.534725 37.849C1.28301 38.5972 1.96117 38.5753 3.8045 37.7431C5.99595 36.7535 7.46601 36.4244 9.67493 36.4289C12.0168 36.4335 13.9645 36.9249 16.1959 38.0743C17.4461 38.7181 18.1379 39.2704 19.7943 40.9464C22.511 43.6952 22.39 43.6952 25.1067 40.9464C26.7717 39.2616 27.4462 38.7242 28.6942 38.0885C30.6772 37.0784 31.7963 36.7274 33.6892 36.522C37.9482 36.0602 41.8012 37.4148 44.8754 40.4544L46.4648 42.0261V48.8784V55.7309L45.3397 57.1088C42.6373 60.4183 40.8885 64.0835 40.0074 68.2842C39.5706 70.3671 39.5116 75.8476 39.9062 77.6978C40.5826 80.8687 41.9374 84.2833 43.4467 86.62C43.993 87.4661 44.0887 87.7527 43.9483 88.1221C43.3838 89.6068 41.5445 90.8611 39.9433 90.8534C38.9808 90.8488 37.5895 90.2984 36.8885 89.645C36.178 88.9828 35.7527 87.974 35.5415 86.4498C35.3112 84.7884 34.7243 83.9041 33.3899 83.2086C31.6685 82.3113 29.4404 83.0421 28.5192 84.806C28.0195 85.763 28.0097 87.9402 28.4977 89.6293C31.0309 98.3991 41.9361 101.239 48.3043 94.7877L49.664 93.4101L51.4211 94.5138C60.7506 100.375 72.9394 99.3769 81.297 92.0683C85.3778 88.4998 88.111 83.8336 89.3206 78.3702C89.7859 76.2683 89.7811 76.1381 89.2188 75.5759C88.1835 74.5404 86.9929 75.2597 86.6277 77.1413C84.7635 86.7429 77.1957 93.9157 67.5076 95.2632C62.142 96.0096 56.1702 94.4798 51.6855 91.2102C42.7318 84.6825 39.897 72.8162 44.9465 63.0011C46.4657 60.0483 48.7692 57.3134 51.4597 55.2683C53.2351 53.9189 56.95 52.148 59.0482 51.651C61.9434 50.9652 62.284 50.8357 62.5781 50.3083C62.937 49.6651 62.7368 48.8817 62.1086 48.47C61.6767 48.1872 61.4627 48.1778 60.2386 48.3889C57.2752 48.9001 53.6304 50.3646 50.8354 52.167L49.5386 53.0035V47.5355V42.0676L51.0275 40.5624C54.0832 37.473 58.0264 36.0611 62.3142 36.5213C64.2061 36.7243 65.3252 37.0765 67.3091 38.0933C68.5462 38.7273 69.2468 39.2848 70.9007 40.951C73.0334 43.0998 73.363 43.2777 74.3603 42.8176C74.6029 42.7058 75.0609 42.2635 75.3779 41.8349C77.8053 38.5534 82.0919 36.4371 86.3284 36.4289C88.5373 36.4244 90.0074 36.7535 92.1988 37.7431C94.0422 38.5753 94.7204 38.5972 95.4686 37.849C96.2601 37.0574 96.194 36.424 95.0903 34.2286C92.3274 28.732 89.1181 24.3779 84.5765 19.9639C75.6555 11.294 64.0321 6.12594 51.5078 5.26124L49.5386 5.12522V3.46785C49.5386 0.908316 49.1359 0 48.0017 0C47.7375 0 47.3669 0.117189 47.1779 0.260506ZM46.4648 22.9376V37.8188L45.1964 36.8588C40.2628 33.1245 33.6994 32.4659 28.1179 35.1451C27.2726 35.5509 26.3026 36.0694 25.9624 36.2973L25.3439 36.7118L25.6394 35.7171C26.7483 31.9831 28.6771 27.0858 30.405 23.6177C34.7598 14.8773 39.604 9.87408 45.12 8.41959C45.8068 8.23843 46.3904 8.08262 46.4167 8.0734C46.4431 8.06418 46.4648 14.753 46.4648 22.9376ZM53.3132 9.31561C59.5779 12.3159 65.0695 20.3274 69.3913 32.7722C69.7638 33.8447 70.2016 35.1699 70.3639 35.7171L70.6594 36.7118L70.041 36.3046C64.1218 32.4077 56.3888 32.6338 50.7954 36.8675L49.5386 37.8188V22.9634V8.10798L50.7393 8.3829C51.3998 8.53409 52.558 8.95386 53.3132 9.31561ZM36.494 10.111C31.2075 14.7355 26.1038 24.0905 22.815 35.1847C22.2734 37.0117 21.795 38.5444 21.7522 38.5907C21.7091 38.6368 21.3084 38.3212 20.8615 37.8891C18.9537 36.0442 15.5067 34.3173 12.7261 33.813C12.1033 33.7001 10.7296 33.6013 9.67359 33.5936C7.98414 33.5812 7.09061 33.7054 4.42887 34.3223C4.02524 34.4159 4.075 34.2724 4.9837 32.7197C11.7204 21.2084 23.1523 12.6793 36.1867 9.43991C37.5163 9.10947 37.5514 9.18593 36.494 10.111ZM59.6836 9.42223C67.8545 11.3532 75.9462 15.7745 82.4016 21.8355C85.4345 24.683 88.8151 28.9527 91.0197 32.7197C91.9284 34.2724 91.9781 34.4159 91.5745 34.3223C88.9043 33.7033 88.0208 33.5811 86.3059 33.5938C84.137 33.6096 82.8882 33.8021 81.0453 34.4049C78.8919 35.1092 76.6927 36.4096 75.1418 37.896C74.695 38.3243 74.2934 38.6368 74.2494 38.5907C74.2056 38.5444 73.7642 37.1233 73.2685 35.4327C69.9999 24.2813 64.8282 14.7638 59.5093 10.111C58.3791 9.12215 58.381 9.11447 59.6836 9.42223ZM67.1084 48.68C66.0312 49.757 66.7872 50.9094 68.8009 51.2602C71.561 51.7409 74.9105 53.1608 77.4889 54.9433C79.0698 56.036 81.4117 58.3274 82.6811 60.0233C84.419 62.3448 85.9008 65.6978 86.5253 68.7217C86.6888 69.513 86.908 70.3201 87.0122 70.5149C87.5186 71.4608 88.9187 71.4286 89.4199 70.4594C89.6958 69.926 89.6868 69.7287 89.3043 67.9298C87.244 58.2407 79.502 50.5562 69.7298 48.5005C67.8834 48.1121 67.6609 48.1274 67.1084 48.68ZM59.8851 60.7897C59.1358 61.2045 58.9522 62.0046 58.9522 64.8548V67.4197H56.3525C53.1805 67.4197 52.5482 67.6163 52.227 68.7015C52.0849 69.1818 52.0307 70.8851 52.0706 73.6114L52.1321 77.786L52.6645 78.3182C53.1914 78.8451 53.2256 78.8511 56.0609 78.9158L58.9251 78.9813L58.9866 81.8417C59.0476 84.6762 59.053 84.7071 59.581 85.2345L60.1135 85.7666H64.7156H69.3177L69.8502 85.2343C70.3776 84.7071 70.3835 84.6735 70.4483 81.8415L70.5136 78.9811L73.374 78.9158C76.2059 78.8511 76.2396 78.8451 76.7667 78.3178L77.2991 77.7852V73.1832V68.5811L76.7669 68.0485C76.2395 67.5206 76.2086 67.5152 73.3742 67.4541L70.5138 67.3926L70.4483 64.5284C70.3835 61.6932 70.3776 61.659 69.8506 61.132L69.3183 60.5997L64.8556 60.554C61.233 60.5169 60.2974 60.5613 59.8851 60.7897ZM67.5973 66.337C67.5973 69.2698 67.6006 69.2917 68.1037 69.795C68.607 70.2984 68.6286 70.3014 71.567 70.3014H74.5236L74.4706 73.1351L74.4174 75.9688L71.3977 76.0649C68.8399 76.1463 68.3258 76.2134 68.0357 76.5033C67.7458 76.7934 67.6788 77.3075 67.5973 79.8653L67.5012 82.8849L64.6676 82.9381L61.8339 82.9911L61.8297 80.0564C61.8237 75.994 62.0093 76.1901 58.0512 76.0649L55.0138 75.9688L54.9606 73.1351L54.9076 70.3014H57.8642C60.8026 70.3014 60.8241 70.2984 61.3275 69.795C61.8306 69.2917 61.8339 69.2698 61.8339 66.337V63.3853H64.7156H67.5973V66.337ZM32.3968 85.9107C32.5042 86.0429 32.6821 86.7354 32.7922 87.4497C33.0569 89.1711 33.6561 90.341 34.9393 91.6428C36.1575 92.8787 37.5993 93.5299 39.4664 93.6879C41.622 93.8702 44.1406 92.7755 45.5226 91.0555L46.1495 90.2755L46.6915 90.7946C46.9894 91.0801 47.2332 91.4253 47.2332 91.5619C47.2332 91.6983 46.7497 92.286 46.1587 92.8675C40.803 98.1384 31.8053 94.804 31.0263 87.2597C30.9489 86.5103 30.9969 86.181 31.2149 85.963C31.5694 85.6085 32.1306 85.5837 32.3968 85.9107Z" fill="black"/>
</svg>
