<svg width="150" height="113" viewBox="0 0 150 113" fill="none" xmlns="http://www.w3.org/2000/svg">
<path d="M94.6226 56.9036C94.6226 56.8229 94.6226 56.8229 94.6226 56.9036C94.2172 56.8229 93.8929 56.6614 93.4875 56.5807C85.8659 54.6436 84.974 53.2714 84.974 50.5271C84.974 48.9936 85.3794 45.9264 85.6226 44.8771C87.3253 44.635 88.7037 44.7157 89.8388 41.8907C91.0551 38.8236 90.1632 36.8864 89.1902 35.8371C90.1632 29.7836 89.1902 25.1021 86.4334 21.7121C82.6226 17.1921 76.7037 16.7886 75.001 16.7886C73.2983 16.7886 67.3794 17.1114 63.5686 21.7121C60.8118 25.1829 59.8388 29.8643 60.8118 35.9179C59.7578 36.9671 58.9469 38.9043 60.1632 41.9714C61.2983 44.7964 62.6767 44.7157 64.3794 44.9579C64.7037 45.9264 65.028 49.0743 65.028 50.6079C65.028 53.3521 64.1361 54.7243 56.5145 56.6614C47.028 58.9214 44.9199 62.715 44.9199 70.06V83.62V84.1043C44.9199 91.6107 49.3794 97.6643 56.8388 97.6643H72.5686H82.3794H93.1632C100.623 97.6643 105.082 91.6107 105.082 84.1043V70.06C105.082 63.0379 103.298 59.2443 94.6226 56.9036Z" fill="white"/>
<path d="M61.0547 30.8329L88.9466 33.9001L88.1358 24.6986L63.406 22.3579L61.0547 30.8329Z" fill="#01A9CE"/>
<path d="M71.1084 23.1652L81.1625 17.7573L87.4057 23.8916L84.2435 24.6988L71.1084 23.1652Z" fill="#01A9CE"/>
<path d="M68.8381 99.117C68.5137 99.117 68.2705 99.0363 67.9462 98.8749C67.2165 98.3906 67.0543 97.422 67.5408 96.7763L84.5678 71.3513C85.0543 70.6249 86.0273 70.4634 86.6759 70.9477C87.4056 71.432 87.5678 72.4006 87.0813 73.0463L70.0543 98.4713C69.811 98.9556 69.3246 99.117 68.8381 99.117Z" fill="black"/>
<path d="M92.0278 66.1052C91.7845 66.1052 91.5413 66.0244 91.298 65.863C90.5683 65.4594 90.325 64.4909 90.7305 63.7644L93.8115 58.3566C94.2169 57.6302 95.1899 57.388 95.9196 57.7916C96.6494 58.1952 96.8926 59.1637 96.4872 59.8902L93.4061 65.298C93.0818 65.863 92.5142 66.1052 92.0278 66.1052Z" fill="black"/>
<path d="M60.4057 31.4786C60.3246 31.2364 60.2435 30.9943 60.3246 30.6715C60.4057 29.8643 61.2165 29.2186 62.0273 29.2993L76.703 30.7522C77.5138 30.8329 78.1624 31.64 78.0814 32.4472C78.0003 33.2543 77.1895 33.9 76.3786 33.8193L61.703 32.3664C61.1354 32.3664 60.6489 31.9629 60.4057 31.4786Z" fill="black"/>
<path d="M80.5141 33.8194C80.433 33.5773 80.3519 33.3351 80.433 33.0123C80.5141 32.2051 81.3249 31.5594 82.1357 31.6401L88.2979 32.3666C89.1087 32.4473 89.7573 33.2544 89.6762 34.0616C89.5952 34.8687 88.7843 35.5144 87.9735 35.4337L81.8114 34.7073C81.2438 34.6266 80.7573 34.3037 80.5141 33.8194Z" fill="black"/>
<path d="M88.1362 69.8987C88.9871 69.8987 89.6768 69.2121 89.6768 68.3651C89.6768 67.5181 88.9871 66.8315 88.1362 66.8315C87.2854 66.8315 86.5957 67.5181 86.5957 68.3651C86.5957 69.2121 87.2854 69.8987 88.1362 69.8987Z" fill="black"/>
<path d="M95.5952 56.823C95.1898 56.7423 94.7844 56.5808 94.379 56.5001C86.3519 54.4823 85.379 52.868 85.379 50.043C85.379 48.5094 85.7844 46.8144 86.1087 45.7651C87.8925 45.523 89.3519 43.9894 90.5681 41.0837C91.8654 37.8551 90.9736 35.8373 89.8384 34.788C90.8114 28.4923 89.8384 23.488 86.9195 20.0173C82.9465 15.2551 76.7033 14.8516 74.9195 14.8516C73.1357 14.8516 66.8925 15.2551 62.9195 20.0173C60.0006 23.488 59.0276 28.4923 60.0006 34.788C58.9465 35.8373 58.0546 37.9358 59.2709 41.0837C60.406 44.0701 61.8654 45.6037 63.7303 45.7651C64.0546 46.8144 64.46 48.5094 64.46 50.043C64.46 52.868 63.5681 54.4823 55.46 56.5001C45.4871 59.0023 43.2168 62.9573 43.2168 70.6251V79.0194C43.2168 79.8266 43.8654 80.4723 44.6763 80.4723C45.4871 80.4723 46.1357 79.8266 46.1357 79.0194V70.6251C46.1357 64.3294 47.433 61.5044 56.1087 59.3251C63.5681 57.4687 67.2979 55.9351 67.2979 50.043C67.2979 46.9758 66.1627 43.828 66.0817 43.7473C65.8384 43.1823 65.2709 42.7787 64.7033 42.7787C64.6222 42.7787 64.5411 42.7787 64.379 42.7787C64.0546 42.8594 63.1627 43.0208 61.9465 39.9537C60.9736 37.4516 62.0276 36.7251 62.1087 36.7251C62.7573 36.483 63.0817 35.7566 63.0006 35.1108C62.7573 33.9808 62.6763 32.8508 62.5952 31.8016C62.5952 31.8016 62.6763 29.138 62.5952 28.8151C62.7573 26.7973 63.1627 25.1023 63.9736 23.6494L86.433 26.0708C86.5141 26.0708 86.5141 26.0708 86.5952 26.0708C86.5952 26.0708 86.5952 26.0708 86.6763 26.0708C87.0817 27.6851 87.2438 29.5416 87.0817 31.6401L86.7573 34.5458C86.7573 34.7073 86.6763 34.8687 86.6763 35.1108C86.5141 35.7566 86.9195 36.483 87.5681 36.7251C87.5681 36.7251 88.7844 37.3708 87.7303 39.9537C86.5141 43.0208 85.6222 42.8594 85.2979 42.7787C84.5681 42.6173 83.8384 43.0209 83.5952 43.7473C83.5141 43.9087 82.379 47.0566 82.379 50.043C82.379 53.7558 83.8384 56.0158 86.2709 56.823L58.46 73.3694V71.1094C58.46 70.3023 57.8114 69.6566 57.0006 69.6566C56.1898 69.6566 55.5411 70.3023 55.5411 71.1094V75.3066L46.46 82.248L45.0006 83.1358C44.1898 83.7008 43.46 84.4273 43.46 85.2344C43.46 85.2344 43.46 85.3151 43.46 85.4766C43.46 93.3058 48.2438 99.6823 56.0276 99.6823H72.5681H82.8654H94.0546C101.919 99.6823 106.622 93.3058 106.622 85.4766V70.7058C106.622 63.2801 104.676 59.4058 95.5952 56.823ZM71.2709 21.4701L66.2438 20.9858C69.4871 17.9994 74.0276 17.838 75.0006 17.838C75.2438 17.838 75.8925 17.838 76.6222 17.9187L71.3519 21.3894L71.2709 21.4701ZM75.8114 22.0351L80.5141 18.968C81.9736 19.533 83.5141 20.5016 84.7303 21.9544C85.0546 22.2773 85.2979 22.6808 85.5411 23.0844L75.8114 22.0351ZM103.622 85.5573C103.622 91.7723 100.217 96.8573 93.9736 96.8573H88.7033C89.6763 95.5658 90.3249 93.9516 90.3249 92.1758C90.3249 87.9787 86.9195 84.508 82.7033 84.508H78.7303L76.7844 87.4944H82.7033C85.2979 87.4944 87.406 89.593 87.406 92.1758C87.406 94.7587 85.2979 96.8573 82.7033 96.8573H72.4871H70.7033H67.1357H55.9465C49.8654 96.8573 46.5411 91.9337 46.379 85.8801L57.7303 77.4051L89.7573 58.1144C89.7573 58.1144 89.7573 58.1144 89.8384 58.0337C90.8114 58.4373 91.8654 58.8409 93.0006 59.1637L96.0006 59.9708C102.892 62.0694 103.703 64.9751 103.703 70.6251V85.5573H103.622Z" fill="black"/>
<path d="M97.5413 26.2324L97.0548 26.7167C96.7304 27.0395 96.7304 27.6045 97.0548 28.0081C97.2169 28.1695 97.4602 28.2502 97.7034 28.2502C97.9467 28.2502 98.1899 28.1695 98.3521 28.0081L98.8386 27.5238C99.1629 27.2009 99.1629 26.6359 98.8386 26.2324C98.5142 25.8288 97.9467 25.8288 97.5413 26.2324Z" fill="black"/>
<path d="M100.298 25.6672C100.541 25.6672 100.785 25.5865 100.947 25.4251L101.433 24.9408C101.758 24.6179 101.758 24.0529 101.433 23.6494C101.109 23.3265 100.541 23.3265 100.136 23.6494L99.6495 24.1337C99.3252 24.4565 99.3252 25.0215 99.6495 25.4251C99.8117 25.5865 100.055 25.6672 100.298 25.6672Z" fill="black"/>
<path d="M100.947 26.2324C100.622 25.9095 100.055 25.9095 99.6495 26.2324C99.3252 26.5552 99.3252 27.1202 99.6495 27.5238L100.136 28.0081C100.298 28.1695 100.541 28.2502 100.785 28.2502C101.028 28.2502 101.271 28.1695 101.433 28.0081C101.758 27.6852 101.758 27.1202 101.433 26.7167L100.947 26.2324Z" fill="black"/>
<path d="M98.3521 23.6494C98.0277 23.3265 97.4602 23.3265 97.0548 23.6494C96.7304 23.9722 96.7304 24.5372 97.0548 24.9408L97.5413 25.4251C97.7034 25.5865 97.9467 25.6672 98.1899 25.6672C98.4331 25.6672 98.6764 25.5865 98.8386 25.4251C99.1629 25.1022 99.1629 24.5372 98.8386 24.1337L98.3521 23.6494Z" fill="black"/>
<path d="M53.1903 14.2055L52.5416 14.8512C52.0551 15.3355 52.0551 16.0619 52.5416 16.5462C52.7849 16.7884 53.1092 16.8691 53.3524 16.8691C53.6768 16.8691 54.0011 16.7884 54.1632 16.5462L54.8119 15.9005C55.2984 15.4162 55.2984 14.6898 54.8119 14.2055C54.4065 13.8019 53.6768 13.8019 53.1903 14.2055Z" fill="black"/>
<path d="M56.8388 13.4794C57.1631 13.4794 57.4874 13.3987 57.6496 13.1566L58.2982 12.5109C58.7847 12.0266 58.7847 11.3001 58.2982 10.8159C57.8118 10.3316 57.082 10.3316 56.5955 10.8159L55.9469 11.4616C55.4604 11.9459 55.4604 12.6723 55.9469 13.1566C56.2712 13.3987 56.5145 13.4794 56.8388 13.4794Z" fill="black"/>
<path d="M57.7307 14.206C57.2442 13.7217 56.5144 13.7217 56.028 14.206C55.5415 14.6903 55.5415 15.4167 56.028 15.901L56.6766 16.5467C56.9198 16.7888 57.2442 16.8696 57.4874 16.8696C57.8117 16.8696 58.1361 16.7888 58.2982 16.5467C58.7847 16.0624 58.7847 15.336 58.2982 14.8517L57.7307 14.206Z" fill="black"/>
<path d="M54.2443 10.8159C53.7578 10.3316 53.0281 10.3316 52.5416 10.8159C52.0551 11.3001 52.0551 12.0266 52.5416 12.5109L53.1903 13.1566C53.4335 13.3987 53.7578 13.4794 54.0011 13.4794C54.3254 13.4794 54.6497 13.3987 54.8119 13.1566C55.2984 12.6723 55.2984 11.9459 54.8119 11.4616L54.2443 10.8159Z" fill="black"/>
<path d="M92.1896 14.6096C92.3517 14.771 92.595 14.8517 92.8382 14.8517C93.0815 14.8517 93.3247 14.771 93.4869 14.6096C93.8112 14.2867 93.8112 13.7217 93.4869 13.3181L93.3247 13.1567C93.0004 12.8338 92.4328 12.8338 92.0274 13.1567C91.7031 13.4796 91.7031 14.0446 92.0274 14.4481L92.1896 14.6096Z" fill="black"/>
<path d="M94.298 16.7077C94.4602 16.8691 94.7034 16.9498 94.9466 16.9498C95.1899 16.9498 95.4331 16.8691 95.5953 16.7077C95.9196 16.3848 95.9196 15.8198 95.5953 15.4163L95.4331 15.2548C95.1088 14.932 94.5412 14.932 94.1358 15.2548C93.8115 15.5777 93.8115 16.1427 94.1358 16.5463L94.298 16.7077Z" fill="black"/>
<path d="M92.6761 16.9498C92.9193 16.9498 93.1626 16.8691 93.3247 16.7077L93.4869 16.5463C93.8112 16.2234 93.8112 15.6584 93.4869 15.2548C93.1626 14.932 92.595 14.932 92.1896 15.2548L92.0274 15.4163C91.7031 15.7391 91.7031 16.3041 92.0274 16.7077C92.1896 16.8691 92.4328 16.9498 92.6761 16.9498Z" fill="black"/>
<path d="M94.7845 14.8517C95.0277 14.8517 95.271 14.771 95.4331 14.6096L95.5953 14.4481C95.9196 14.1253 95.9196 13.5603 95.5953 13.1567C95.271 12.8338 94.7034 12.8338 94.298 13.1567L94.1358 13.3181C93.8115 13.641 93.8115 14.206 94.1358 14.6096C94.298 14.771 94.5412 14.8517 94.7845 14.8517Z" fill="black"/>
<path d="M49.217 30.7521C49.3791 30.9136 49.6224 30.9943 49.8656 30.9943C50.1088 30.9943 50.3521 30.9136 50.5142 30.7521C50.8386 30.4293 50.8386 29.8643 50.5142 29.4607L50.271 29.2993C49.9467 28.9764 49.3791 28.9764 48.9737 29.2993C48.6494 29.6221 48.6494 30.1871 48.9737 30.5907L49.217 30.7521Z" fill="black"/>
<path d="M51.3253 32.8508C51.4875 33.0122 51.7307 33.0929 51.974 33.0929C52.2172 33.0929 52.4605 33.0122 52.6226 32.8508C52.9469 32.5279 52.9469 31.9629 52.6226 31.5593L52.4605 31.3979C52.1361 31.075 51.5686 31.075 51.1632 31.3979C50.7578 31.7208 50.8388 32.2858 51.1632 32.6893L51.3253 32.8508Z" fill="black"/>
<path d="M49.7034 33.0929C49.9467 33.0929 50.1899 33.0122 50.3521 32.8508L50.5142 32.6893C50.8385 32.3665 50.8385 31.8015 50.5142 31.3979C50.1899 31.075 49.6223 31.075 49.2169 31.3979L49.0548 31.5593C48.7304 31.8822 48.7304 32.4472 49.0548 32.8508C49.2169 33.0122 49.4602 33.0929 49.7034 33.0929Z" fill="black"/>
<path d="M51.8118 30.9941C52.0551 30.9941 52.2983 30.9134 52.4605 30.752L52.6226 30.5906C52.9469 30.2677 52.9469 29.7027 52.6226 29.2991C52.2983 28.8956 51.7307 28.9763 51.3253 29.2991L51.1632 29.4606C50.8388 29.7834 50.8388 30.3484 51.1632 30.752C51.3253 30.9134 51.5686 30.9941 51.8118 30.9941Z" fill="black"/>
</svg>
