<svg width="108" height="110" viewBox="0 0 108 110" fill="none" xmlns="http://www.w3.org/2000/svg">
<path d="M79.8316 42.3617C79.4437 41.9083 78.63 41.8451 78.1577 42.2316C77.7235 42.5921 67.5031 51.1172 66.9002 57.145C66.3731 62.4221 70.6738 67.0823 76.4839 67.5319C82.294 67.9816 87.4463 64.0535 87.9691 58.7727C88.5679 52.7449 80.1858 42.7816 79.8274 42.3617H79.8316ZM76.6863 65.514C72.1242 65.161 68.7469 61.4856 69.1601 57.3196C69.586 53.0274 76.2857 46.7246 78.7733 44.5171C80.7887 47.0739 86.1392 54.3095 85.7134 58.6018C85.3002 62.7677 81.2483 65.8671 76.6863 65.514Z" fill="#231F20"/>
<path d="M58.3741 39.112C55.507 40.0039 51.9793 37.13 50.5739 35.5815L24.2218 64.011L25.9083 66.0549L24.2218 68.0989C18.6563 72.4097 20.4974 76.3366 22.1137 77.7611C24.8121 81.1801 29.2814 79.8051 31.1788 78.6902L67.0175 40.9701C66.1743 36.8822 61.958 37.9971 58.3741 39.112Z" fill="#F4F4F4"/>
<path d="M82.4251 52.8785C82.1426 52.3805 81.4638 52.1798 80.903 52.4325C80.3422 52.6852 80.1188 53.2947 80.4012 53.7927C81.6155 55.9481 81.7926 57.167 81.7294 57.8062C81.5144 59.9468 79.4399 61.5411 77.0956 61.3627C76.4716 61.3144 75.9235 61.7269 75.8687 62.2843C75.8139 62.8418 76.2735 63.3323 76.8975 63.3806C80.4814 63.6594 83.6647 61.2364 83.9893 57.9809C84.12 56.6654 83.593 54.9484 82.4293 52.8785H82.4251Z" fill="#231F20"/>
<path d="M77.9598 37.9951C78.2718 38.0174 78.5839 38.0174 78.9001 37.9951C80.2873 37.8799 81.5479 37.289 82.4418 36.3302C84.2886 34.3494 83.9892 31.4024 81.7798 29.7561L66.0909 18.0759C63.8815 16.4296 60.5844 16.7046 58.7376 18.6817C57.8438 19.6405 57.4179 20.852 57.5444 22.0932C57.6329 22.9925 58.0082 23.825 58.6111 24.5199L38.2926 46.3121L27.8109 57.5538L18.6404 67.3907C16.6966 69.4756 15.7733 72.1104 16.0473 74.8084C16.3172 77.5064 17.7507 79.948 20.0781 81.6798C21.9207 83.0511 24.1089 83.8092 26.3351 83.9801C29.919 84.2589 33.5957 83.0139 36.0706 80.3605L76.0456 37.486C76.6443 37.761 77.2937 37.9319 77.9683 37.9839L77.9598 37.9951ZM60.479 19.9786C61.1241 19.2874 62.0812 18.9641 63.013 19.0347C63.5906 19.0793 64.164 19.2763 64.6405 19.633L80.3294 31.3132C81.5817 32.246 81.7461 33.9146 80.7047 35.0332C80.1987 35.5758 79.4862 35.9103 78.7019 35.9771C77.9177 36.0403 77.1503 35.8285 76.5432 35.3788L60.8542 23.6986C59.602 22.7658 59.4375 21.0972 60.479 19.9786ZM34.3251 79.0747C31.1122 82.5196 25.3696 82.9916 21.5243 80.1301C19.6607 78.7439 18.5139 76.7892 18.2988 74.63C18.0838 72.4709 18.8174 70.36 20.3733 68.6914L23.5777 65.2539L28.983 69.2786C29.1685 69.4161 29.3878 69.4904 29.607 69.509C29.9654 69.535 30.3322 69.4124 30.5768 69.1485C30.9773 68.7174 30.9141 68.0782 30.4334 67.7215L25.0281 63.6968L28.8186 59.6349L31.0869 61.3221C31.2725 61.4596 31.4917 61.5339 31.711 61.5525C32.0694 61.5785 32.4362 61.4559 32.6807 61.192C33.0813 60.7609 33.018 60.1217 32.5374 59.765L30.269 58.0778L34.0595 54.0159L39.4648 58.0406C39.6503 58.1781 39.8696 58.2524 40.0888 58.271C40.4472 58.297 40.814 58.1744 41.0586 57.9105C41.4591 57.4795 41.3959 56.8403 40.9152 56.4835L35.5099 52.4588L39.3004 48.3969L41.5687 50.0841C41.7543 50.2216 41.9735 50.2959 42.1928 50.3145C42.5511 50.3405 42.918 50.2179 43.1625 49.954C43.5631 49.5229 43.4998 48.8837 43.0191 48.527L40.7508 46.8398L44.5412 42.7779L49.9466 46.8026C50.1321 46.9401 50.3513 47.0145 50.5706 47.033C50.929 47.0591 51.2958 46.9364 51.5403 46.6726C51.9409 46.2415 51.8776 45.6023 51.397 45.2455L45.9917 41.2208L60.2639 25.9135L74.2115 36.2967L34.3167 79.0858L34.3251 79.0747Z" fill="#231F20"/>
<path d="M68.0728 40.6259C68.0432 40.533 67.3602 38.333 65.1087 37.4188C63.5486 36.787 61.7019 36.9282 59.6232 37.8387C58.1855 38.4667 56.9922 38.6042 56.0731 38.2401C55.3141 37.939 54.8461 37.337 54.5847 36.8948C55.3184 36.4005 56.1954 36.1144 57.0007 36.1404C57.6837 36.1627 58.2361 36.3931 58.6366 36.8279C59.0329 37.259 59.7497 37.3184 60.2304 36.9617C60.7153 36.6049 60.7827 35.9657 60.3864 35.5346C59.5769 34.6576 58.4089 34.1522 57.085 34.1113C55.4491 34.0593 53.733 34.7133 52.4766 35.8542C52.4681 35.8616 52.4597 35.8691 52.4513 35.8765C52.4386 35.8877 52.4218 35.8988 52.4091 35.91C52.4007 35.9174 52.3965 35.9248 52.3922 35.9285C52.3796 35.9397 52.3669 35.9508 52.3585 35.962L48.0789 40.5516C47.6784 40.9827 47.7416 41.6219 48.2223 41.9786C48.703 42.3354 49.4155 42.2759 49.8203 41.8485L52.991 38.4482C53.4548 39.0502 54.142 39.6857 55.1202 40.0796C56.6845 40.7077 58.5312 40.5664 60.6141 39.656C62.0518 39.0279 63.2408 38.8941 64.1558 39.2583C64.9653 39.5816 65.4418 40.2506 65.6863 40.7039L31.7196 77.1308C30.7456 78.175 29.3753 78.8179 27.8617 78.9443C26.348 79.0707 24.8723 78.6581 23.7086 77.7923C22.5406 76.9226 21.8239 75.7 21.689 74.3473C21.554 72.9946 22.0136 71.6753 22.9876 70.631L24.9819 68.4942C25.3825 68.0631 25.3192 67.4239 24.8385 67.0671C24.3579 66.7104 23.6453 66.7698 23.2406 67.1972L21.2462 69.334C19.8844 70.7945 19.2393 72.6415 19.429 74.5331C19.6187 76.4247 20.6222 78.1342 22.2539 79.3494C23.5146 80.2859 25.0325 80.8433 26.6305 80.9659C27.1027 81.0031 27.5834 81.0031 28.064 80.9622C30.1806 80.7876 32.0948 79.8882 33.4567 78.4277L67.8493 41.5401C68.0854 41.2874 68.1697 40.9455 68.0728 40.6296V40.6259Z" fill="#231F20"/>
<path d="M30.075 61.4447C29.5944 61.088 28.8818 61.1474 28.4771 61.5748L27.111 63.0427C26.7104 63.4738 26.7737 64.113 27.2543 64.4698C27.4398 64.6073 27.6591 64.6816 27.8783 64.7002C28.2367 64.7262 28.6035 64.6036 28.8481 64.3397L30.2142 62.8718C30.6147 62.4407 30.5515 61.8015 30.0708 61.4447H30.075Z" fill="#231F20"/>
<path d="M34.0935 58.7171L35.4596 57.2492C35.8602 56.8181 35.7969 56.1789 35.3163 55.8222C34.8356 55.4654 34.123 55.5249 33.7183 55.9522L32.3522 57.4202C31.9516 57.8512 32.0149 58.4904 32.4955 58.8472C32.6811 58.9847 32.9003 59.059 33.1195 59.0776C33.4779 59.1036 33.8448 58.981 34.0893 58.7171H34.0935Z" fill="#231F20"/>
<path d="M40.5614 50.203C40.0807 49.8463 39.3681 49.9057 38.9634 50.3331L37.5973 51.801C37.1967 52.2321 37.26 52.8713 37.7406 53.2281C37.9262 53.3656 38.1454 53.4399 38.3647 53.4585C38.7231 53.4845 39.0899 53.3618 39.3344 53.098L40.7005 51.6301C41.1011 51.199 41.0378 50.5598 40.5572 50.203H40.5614Z" fill="#231F20"/>
<path d="M44.575 47.4715L45.9411 46.0036C46.3416 45.5725 46.2784 44.9333 45.7977 44.5766C45.317 44.2198 44.6045 44.2793 44.1997 44.7066L42.8336 46.1746C42.4331 46.6056 42.4963 47.2448 42.977 47.6016C43.1625 47.7391 43.3817 47.8134 43.601 47.832C43.9594 47.858 44.3262 47.7354 44.5707 47.4715H44.575Z" fill="#231F20"/>
</svg>
