<svg width="108" height="110" viewBox="0 0 108 110" fill="none" xmlns="http://www.w3.org/2000/svg">
<path d="M62.1776 69.6765L61.7083 69.4986L61.0378 69.6765C59.3615 69.6765 57.8864 66.8299 57.6182 65.4066C59.2945 64.1612 60.8366 62.6787 62.0435 61.0182C67.2063 58.1123 70.2906 53.1308 70.2906 47.6155C70.2906 45.0062 69.553 42.3968 68.145 40.084L65.463 28.8756C65.396 28.5198 65.1278 28.2233 64.7925 28.0454C52.4555 21.344 40.3195 27.7488 39.8502 28.0454C39.5149 28.2233 39.2467 28.5198 39.1797 28.8756L36.5648 40.084C35.1567 42.3968 34.4192 45.0062 34.4192 47.6155C34.4192 53.0715 37.6376 58.2309 42.9345 61.1368C44.0743 62.6787 45.5494 64.1019 47.1586 65.3473C46.8904 66.8299 45.4153 67.8974 43.672 67.8974H42.4651C36.2295 67.8974 31.1338 72.4044 31.1338 77.979C31.1338 80.2325 32.0725 82.4268 33.8158 84.028L33.9499 84.1466C38.0399 88.0606 43.9402 90.2548 50.1758 90.2548H54.6681C60.8366 90.2548 66.804 88.0013 70.894 84.1466L71.0281 84.028C72.7714 82.3674 73.7101 80.2325 73.7101 77.979C73.576 72.4044 68.4132 70.0916 62.1776 69.6765Z" fill="white"/>
<path d="M35.2526 73.1513C37.264 74.3373 38.605 74.9304 41.9575 76.1164C45.31 77.3025 52.6854 78.4886 52.6854 78.4886L41.9575 69C41.9575 69 33.4422 72.0838 35.2526 73.1513Z" fill="#01A9CE"/>
<path d="M70.1184 73.1513C68.1069 74.3373 66.7659 74.9304 63.4134 76.1164C60.061 77.3025 52.6855 78.4886 52.6855 78.4886L63.4134 69C63.4134 69 71.9287 72.0838 70.1184 73.1513Z" fill="#01A9CE"/>
<path d="M52.3893 67.1266C50.7131 67.1266 49.1039 66.6522 47.6959 65.7033C45.6844 64.28 44.0082 62.6788 42.6672 60.7811C40.2534 57.4601 38.9795 53.6647 38.9795 49.6913C38.9795 45.4808 41.1251 44.7691 44.1423 43.761C44.5446 43.6424 45.0139 43.4645 45.5503 43.2866C46.0197 43.1086 46.489 43.1679 46.8913 43.4052C47.1595 43.5831 47.4277 43.8796 47.4948 44.1761C47.6288 44.4726 49.9756 50.3437 64.2571 50.3437C64.6594 50.3437 65.1287 50.5216 65.3969 50.8181C65.6651 51.1146 65.7992 51.4704 65.7321 51.8856C65.7321 51.9449 65.7321 52.1228 65.7321 52.1228C65.3298 55.1473 64.123 58.1124 62.2456 60.7218C60.8376 62.6195 59.0943 64.3393 57.0828 65.7626C55.6748 66.6522 53.9985 67.1266 52.3893 67.1266ZM45.2151 46.1924C45.148 46.1924 45.148 46.1924 45.081 46.2517C42.2649 47.2006 41.8626 47.3192 41.8626 49.7506C41.8626 53.1902 43.0024 56.5112 45.081 59.4171C46.2879 61.0183 47.7629 62.5009 49.4392 63.687C51.1154 64.8731 53.4621 64.8731 55.1384 63.687C56.8816 62.4416 58.4238 61.0183 59.6307 59.2985C61.0387 57.4008 61.9774 55.2066 62.4467 52.953C51.3836 52.5972 46.8243 48.6239 45.2151 46.1924Z" fill="black"/>
<path d="M68.0122 39.8466C67.8111 39.5501 67.4758 39.3129 67.1406 39.2536C53.6637 32.1371 40.455 37.8303 37.6389 39.1943C37.2366 39.2536 36.8343 39.4908 36.6332 39.8466C35.1581 42.2188 34.3535 44.8874 34.3535 47.5561C34.3535 53.1306 37.706 58.3493 43.137 61.1959C43.4052 61.3145 43.6063 61.3738 43.8745 61.3738C44.2768 61.3738 44.6791 61.2552 44.9473 60.9587C45.4166 60.5436 45.4837 59.8319 45.1484 59.3575C43.0029 56.5109 41.9301 53.1899 41.9301 49.7503C41.9301 47.8526 42.3324 47.6747 44.0757 46.963C44.478 46.7851 44.8802 46.6072 45.3496 46.4293C46.6906 48.4456 50.043 51.2922 57.1503 52.4783C57.6867 52.5969 58.2901 52.6562 58.8935 52.7155C59.2958 51.8259 59.0276 50.8771 59.0276 50.1061C58.9606 50.1061 58.8935 50.1061 58.8265 50.1061C49.3055 48.8608 47.5622 44.5316 47.4281 44.2351C47.3611 43.8793 47.0929 43.5827 46.6906 43.4048C46.2212 43.1676 45.6178 43.2269 45.1484 43.4641C44.2768 43.9979 43.4722 44.2944 42.7347 44.5909C40.7232 45.4212 38.8458 46.1921 38.8458 49.7503C38.8458 51.4108 39.047 53.0713 39.5163 54.6132C38.0412 52.5376 37.2366 50.1061 37.2366 47.5561C37.2366 45.4212 37.773 43.4048 38.8458 41.5071C40.7902 40.5583 53.2614 34.9837 65.5985 41.5071C66.6713 43.3455 67.2747 45.4212 67.2747 47.5561C67.2747 50.0468 66.5372 52.3597 65.1291 54.376C65.3303 53.605 65.4644 52.8341 65.5985 52.1225C65.5985 52.0632 65.5985 52.0039 65.5985 51.9445C65.6655 51.5887 65.5985 51.1736 65.3303 50.8771C65.0621 50.5806 64.6598 50.4027 64.1904 50.4027C63.9893 50.4027 63.7211 50.4027 63.5199 50.4027C62.7153 50.8771 62.4472 51.9445 62.3801 53.012C62.4472 53.012 62.4472 53.012 62.5142 53.012C62.0449 55.2655 61.1062 57.4005 59.6981 59.3575C59.2958 59.8912 59.4299 60.5436 59.8993 60.9587C60.3686 61.3738 61.1062 61.4924 61.7096 61.1366C67.0736 58.2307 70.2919 53.1899 70.2919 47.6154C70.2919 44.8874 69.4873 42.2188 68.0122 39.8466Z" fill="black"/>
<path d="M52.3212 78.5719C51.986 78.5719 51.5837 78.4533 51.3155 78.216L41.4592 70.0914C40.9899 69.7356 40.8558 69.1426 41.124 68.6682C41.3251 68.1937 41.8615 67.8379 42.465 67.8379H43.6719C45.6163 67.8379 47.2255 66.4146 47.2255 64.6948C47.2255 63.9832 47.896 63.3901 48.7006 63.3901C49.5052 63.3901 50.1756 63.9832 50.1756 64.6948C50.1756 67.1856 48.3653 69.3205 45.8845 70.0914L52.4553 75.4881L59.0261 70.0914C56.4783 69.3205 54.735 67.1856 54.735 64.6948C54.735 63.9832 55.4055 63.3901 56.2101 63.3901C57.0147 63.3901 57.6852 63.9832 57.6852 64.6948C57.6852 66.4146 59.2943 67.8379 61.2388 67.8379H62.4457C63.0491 67.8379 63.5855 68.1937 63.7866 68.6682C63.9878 69.1426 63.8537 69.7356 63.4514 70.0914L53.327 78.216C53.0588 78.4533 52.6565 78.5719 52.3212 78.5719Z" fill="black"/>
<path d="M54.5343 90.1954H50.042C43.8735 90.1954 37.9731 87.9418 33.8161 84.0871L33.682 83.9685C31.9387 82.308 31 80.173 31 77.9195C31 72.4043 36.0957 67.8379 42.3313 67.8379C43.1359 67.8379 43.8064 68.4309 43.8064 69.1426C43.8064 69.8542 43.1359 70.4472 42.3313 70.4472C37.7049 70.4472 33.8831 73.7683 33.8831 77.9195C33.8831 79.5207 34.5536 81.0626 35.7605 82.2487L35.8946 82.3673C39.4482 85.7476 44.5439 87.6453 49.9749 87.6453H54.4672C59.8312 87.6453 64.994 85.7476 68.5476 82.3673L68.6817 82.2487C69.8886 81.0626 70.5591 79.58 70.5591 77.9195C70.5591 75.4288 69.151 73.2345 67.0055 71.8705C65.5974 70.981 65.6645 70.6845 65.6645 70.0914C65.6645 69.3798 67.1395 68.6681 69.0169 69.9728C71.6989 71.8112 73.5092 74.7171 73.5092 77.9788C73.5092 80.2323 72.5705 82.4266 70.8273 84.0278L70.6932 84.1464C66.6702 87.9418 60.7699 90.1954 54.5343 90.1954Z" fill="black"/>
<path d="M67.5413 41.6259C68.0106 41.3294 68.2788 40.7956 68.1447 40.3212L65.4628 28.8756C65.3957 28.5198 65.1275 28.2233 64.7923 28.0454C52.4552 21.344 40.3193 27.7488 39.85 28.0454C39.5147 28.2233 39.2465 28.5198 39.1795 28.8756L36.4975 40.2026V40.3805C36.4305 40.8549 36.6986 41.3887 37.168 41.6852C37.4362 41.8038 37.7044 41.9224 37.9726 41.9224C38.2408 41.9224 38.509 41.8631 38.7101 41.7445C38.8442 41.6852 52.5223 34.4501 65.9321 41.7445C65.3957 40.5584 64.7252 39.3723 64.39 38.0677C64.6582 39.3723 65.3957 40.5584 65.9321 41.7445C66.4685 41.9224 67.072 41.9224 67.5413 41.6259ZM39.9841 38.1863L41.9285 29.9431C44.2082 28.8756 53.3939 25.1395 62.7138 29.9431L64.6582 38.0677C54.3997 33.7978 44.6105 36.4072 39.9841 38.1863Z" fill="black"/>
<path d="M41.9288 29.9431L39.9844 38.1863C44.6108 36.4072 54.4 33.7978 64.6585 38.0677L62.7141 29.9431C53.3942 25.1988 44.2085 28.8756 41.9288 29.9431Z" fill="#01A9CE"/>
<path d="M54.6028 30.8327H53.7982V30.1211C53.7982 29.4094 53.1277 28.8164 52.3231 28.8164C51.5185 28.8164 50.848 29.4094 50.848 30.1211V30.8327H50.0434C49.2388 30.8327 48.5684 31.4258 48.5684 32.1374C48.5684 32.8491 49.2388 33.4421 50.0434 33.4421H50.848V34.1537C50.848 34.8654 51.5185 35.4584 52.3231 35.4584C53.1277 35.4584 53.7982 34.8654 53.7982 34.1537V33.4421H54.6028C55.4074 33.4421 56.0779 32.8491 56.0779 32.1374C56.0779 31.4258 55.4074 30.8327 54.6028 30.8327Z" fill="black"/>
</svg>
