<svg width="165" height="124" viewBox="0 0 165 124" fill="none" xmlns="http://www.w3.org/2000/svg">
<path d="M28.9863 81.4861L39.689 74.4004L53.0674 94.7718L42.3647 102.743L28.9863 81.4861Z" fill="#01A9CE"/>
<path d="M42.3647 76.1716L55.7431 67.3145H59.3107L86.0674 76.1716L88.7431 80.6002H90.1702L103.905 71.743L108.365 70.8573L111.04 73.5145L111.932 77.0573L109.257 80.6002L83.3918 97.4287L57.5269 90.343L52.1756 92.1144L42.3647 76.1716Z" fill="white"/>
<path d="M112.2 72.1858C110.149 69.1744 106.046 68.3773 103.013 70.3258L94.9864 75.6401C94.2729 76.1715 94.0053 77.1458 94.5404 77.943C95.0756 78.6515 96.0566 78.9173 96.8593 78.3858L104.886 73.0715C106.403 72.0973 108.543 72.4515 109.524 73.9573C110.505 75.463 110.149 77.5887 108.632 78.563L84.5512 94.5944C84.2837 94.7716 84.0161 94.9487 83.6593 95.0373C83.2134 95.2144 82.6783 95.2144 82.2323 95.1258L59.0431 88.483C58.9539 88.483 58.9539 88.483 58.8647 88.3944C57.1702 88.0401 55.3864 88.3944 53.9593 89.3687L52.5323 90.2544L43.6134 76.9687L54.4053 69.7944C56.0107 68.7316 57.7945 68.3773 59.6675 68.7315L84.7296 76.703C86.4242 77.2344 87.4945 79.0944 86.9593 80.7773C86.6918 81.5744 86.1566 82.283 85.3539 82.7258C84.5512 83.1687 83.6593 83.2573 82.7675 82.9915L70.5485 79.803C69.6566 79.5373 68.7648 80.0687 68.4972 80.9544C68.408 81.3973 68.4972 81.9287 68.6756 82.283C68.8539 82.6373 69.2107 82.8144 69.6566 82.9915L81.8756 86.1801C83.5702 86.623 85.3539 86.4458 86.8702 85.6487C88.4756 84.8515 89.5458 83.4344 90.081 81.7516C91.1512 78.3858 89.1891 74.7544 85.7107 73.603L60.7377 65.6315C60.6485 65.6315 60.5593 65.543 60.4702 65.543C57.7053 65.0115 54.9404 65.543 52.6215 67.0487L41.9188 74.223L40.9377 72.8058C40.4026 72.0973 39.4215 71.8315 38.6188 72.363L27.4702 79.7144C26.7566 80.2458 26.4891 81.2201 27.0242 82.0173L36.0323 95.3915C36.5675 96.1001 37.5485 96.3658 38.3512 95.8344C39.0648 95.303 39.3323 94.3287 38.7972 93.5315L30.7702 81.5744L38.9756 76.083L51.6404 94.9487L43.435 100.44L43.0783 99.8201C42.5431 99.1115 41.5621 98.8458 40.7593 99.3773C40.0458 99.9087 39.7783 100.883 40.3134 101.68L41.6512 103.629C42.1864 104.337 43.1675 104.603 43.9702 104.072L54.9404 96.8087C55.6539 96.2773 55.9215 95.303 55.3864 94.5058L54.4053 93.0887L55.8323 92.203C56.5458 91.7601 57.3485 91.583 58.2404 91.6715L81.5188 98.3144H81.608H81.6972C82.6783 98.4915 83.7485 98.403 84.7296 98.1373C85.3539 97.9601 85.8891 97.6944 86.4242 97.3401L110.505 81.3087C113.359 79.2716 114.251 75.1973 112.2 72.1858Z" fill="black"/>
<path d="M66.5347 58.1031C68.9428 60.4945 71.6185 62.266 74.7401 63.5945C77.9509 64.9231 81.3401 65.6317 84.8185 65.6317C88.2969 65.6317 91.6861 64.9231 94.8969 63.5945C97.9293 62.266 100.694 60.4945 103.102 58.1031C105.51 55.7117 107.294 53.0545 108.632 49.9545C109.97 46.766 110.683 43.4002 110.683 39.946C110.683 36.4917 109.97 33.126 108.632 29.9374C107.294 26.926 105.51 24.1803 103.102 21.7888C100.694 19.3974 98.0185 17.626 94.8969 16.2974C91.6861 14.9688 88.2969 14.2603 84.8185 14.2603C81.3401 14.2603 77.9509 14.9688 74.7401 16.2974C71.7077 17.626 68.9428 19.3974 66.5347 21.7888C64.1266 24.1803 62.3428 26.8374 61.005 29.9374C59.6671 33.126 58.9536 36.4917 58.9536 39.946C58.9536 43.4002 59.6671 46.766 61.005 49.9545C62.3428 52.966 64.2158 55.7117 66.5347 58.1031ZM84.8185 17.5374C97.305 17.5374 107.473 27.6345 107.473 40.0345C107.473 52.4345 97.305 62.5317 84.8185 62.5317C72.332 62.5317 62.1644 52.4345 62.1644 40.0345C62.1644 27.546 72.332 17.5374 84.8185 17.5374Z" fill="black"/>
<path d="M82.7673 29.4062H82.5889C81.8754 29.672 81.1619 30.0263 80.6267 30.4691C79.7348 31.2663 79.1997 32.3291 79.1997 33.392C79.1997 34.4548 79.7348 35.4291 80.6267 36.2262C81.0727 36.5805 81.697 36.8462 82.5889 37.0234H82.6781V29.4062H82.7673Z" fill="white"/>
<path d="M90.9726 45.7033C90.9726 44.109 89.9915 42.6033 88.2969 41.7176C88.2078 41.629 87.4051 41.2747 86.0672 40.9204H85.978V50.6633H86.0672C89.0105 50.1318 91.0618 48.0947 90.9726 45.7033Z" fill="white"/>
<path d="M84.8186 62.443C97.3051 62.443 107.473 52.3459 107.473 39.9459C107.473 27.5459 97.3051 17.4487 84.8186 17.4487C72.3321 17.4487 62.1646 27.5459 62.1646 39.9459C62.1646 52.3459 72.3321 62.443 84.8186 62.443ZM75.8105 44.8173C76.0781 44.463 76.524 44.2859 76.97 44.2859C77.8619 44.2859 78.6646 44.9944 78.6646 45.8802C78.6646 46.8544 79.1105 47.8287 79.824 48.7144C80.5375 49.5116 81.5186 50.1316 82.6781 50.4859H82.8564V40.4773H82.7673C80.8943 40.2116 79.6456 39.6802 78.6646 38.883C76.97 37.4659 76.0781 35.6059 76.0781 33.5687C76.0781 31.5316 76.97 29.583 78.6646 28.0773C79.824 27.103 81.3402 26.3944 82.9456 26.0402H83.0348V24.003C83.0348 23.1173 83.7483 22.3202 84.6402 22.3202C85.5321 22.3202 86.3348 23.0287 86.3348 23.9144V25.9516H86.424C88.0294 26.2173 89.5456 26.8373 90.7051 27.8116C92.3997 29.2287 93.3808 31.0887 93.47 33.2144C93.47 34.1002 92.7564 34.8973 91.8646 34.8973C90.9727 34.8973 90.17 34.1887 90.17 33.303C90.17 32.2402 89.6348 31.1773 88.6537 30.4687C88.0294 29.9373 87.2267 29.583 86.424 29.4059H86.3348V37.643H86.424C88.6537 38.0859 89.9916 38.7944 90.2591 38.9716C92.9348 40.4773 94.5402 43.0459 94.6294 45.7916C94.6294 46.943 94.3619 48.0944 93.9159 49.1573C93.47 50.1316 92.7564 51.0173 91.8646 51.8144C90.3483 53.143 88.4754 53.9402 86.424 54.2059H86.3348V56.1544C86.3348 56.5973 86.1565 57.0402 85.8889 57.3059C85.6213 57.6602 85.1754 57.8373 84.7294 57.8373C83.8375 57.8373 83.0348 57.1287 83.0348 56.243V54.1173H82.9456C81.3402 53.763 79.824 53.143 78.6646 52.0802C77.7727 51.3716 77.0592 50.4859 76.524 49.5116C75.9889 48.4487 75.7213 47.3859 75.6321 46.2344C75.2754 45.5259 75.4537 45.1716 75.8105 44.8173Z" fill="white"/>
<path d="M78.3078 51.9031C79.5565 52.8774 80.9835 53.5859 82.5889 53.9402H82.6781V56.0659C82.6781 56.9516 83.4808 57.6602 84.3727 57.6602C84.8186 57.6602 85.2646 57.4831 85.5321 57.1288C85.7997 56.7745 85.9781 56.4202 85.9781 55.9774V54.0288H86.0673C88.1186 53.7631 89.9916 52.9659 91.5078 51.6374C92.3997 50.8402 93.1132 49.9545 93.5592 48.9802C94.0943 47.9174 94.2727 46.7659 94.2727 45.6145C94.1835 42.8688 92.5781 40.3002 89.9024 38.7945C89.6348 38.6174 88.297 37.9088 86.0673 37.4659H85.9781V29.2288H86.0673C86.9592 29.4059 87.6727 29.8488 88.297 30.2916C89.2781 31.0888 89.8132 32.0631 89.8132 33.1259C89.8132 34.0116 90.6159 34.7202 91.5078 34.7202C92.3997 34.7202 93.2024 33.9231 93.1132 33.0374C93.1132 31.0002 92.1321 29.0516 90.3484 27.6345C89.0997 26.6602 87.6727 26.0402 86.0673 25.7745H85.9781V23.7374C85.9781 22.8516 85.1754 22.1431 84.2835 22.1431C83.3916 22.1431 82.5889 22.9402 82.6781 23.8259V25.8631H82.5889C80.9835 26.2174 79.5565 26.8374 78.3078 27.9002C76.6132 29.3174 75.7213 31.2659 75.7213 33.3916C75.7213 35.4288 76.7024 37.2888 78.3078 38.7059C79.2889 39.5031 80.6267 40.0345 82.4105 40.3002H82.4997V50.4859H82.3213C81.1619 50.1316 80.1808 49.5116 79.4673 48.7145C78.7538 47.9174 78.3078 46.9431 78.3078 45.8802C78.3078 44.9945 77.5051 44.2859 76.6132 44.2859C76.1673 44.2859 75.7213 44.4631 75.4538 44.8174C75.1862 45.1716 75.0078 45.5259 75.0078 45.9688C75.0078 47.1202 75.2754 48.2716 75.8997 49.2459C76.7024 50.3088 77.4159 51.1059 78.3078 51.9031ZM86.0673 40.9202H86.1565C87.4943 41.2745 88.297 41.6288 88.3862 41.7174C89.9916 42.6031 90.9727 44.1088 91.0619 45.7031C91.0619 48.0059 89.0997 50.1316 86.2457 50.6631H86.1565V40.9202H86.0673ZM82.6781 37.0231C81.7862 36.8459 81.1619 36.5802 80.7159 36.2259C79.824 35.4288 79.2889 34.4545 79.2889 33.3916C79.2889 32.3288 79.7348 31.2659 80.7159 30.4688C81.2511 29.9374 81.9646 29.5831 82.6781 29.4059H82.8565V37.1116L82.6781 37.0231Z" fill="black"/>
</svg>
