<svg width="157" height="118" viewBox="0 0 157 118" fill="none" xmlns="http://www.w3.org/2000/svg">
<path d="M106.166 20.397H43.1118V101.058H106.166V20.397Z" fill="white"/>
<path d="M102.336 93.9836L99.792 96.0864L109.89 108.136L112.433 106.033L102.336 93.9836Z" fill="#01A9CE"/>
<path d="M58.2178 27.7297H91.3999L89.448 22.504L83.3378 19.4697L82.2345 14.6654L79.9432 10.8726L74.427 9.77686L67.8075 11.1254L65.7707 17.1097L64.4978 19.4697L59.8302 21.6611L58.2178 27.7297Z" fill="#01A9CE"/>
<path d="M79.3488 74.5086C78.6699 73.9186 77.5666 73.9186 76.9726 74.5929C76.3785 75.2671 76.3785 76.3629 77.0574 76.9529L84.865 84.1171C85.2045 84.37 85.5439 84.5386 85.9683 84.5386H86.0531C86.4774 84.5386 86.9018 84.2857 87.2412 83.9486L106.506 61.4443C107.015 60.6857 106.76 59.59 105.996 59.0843C105.402 58.6629 104.554 58.7471 103.96 59.2529L85.7985 80.4086L79.3488 74.5086Z" fill="black"/>
<path d="M95.7276 64.1416C96.0671 64.3945 96.4066 64.4788 96.746 64.4788C97.6795 64.4788 98.4433 63.7202 98.4433 62.793C98.4433 62.2873 98.1887 61.7816 97.7644 61.4445L97.5098 61.2759C96.8309 60.6859 95.7276 60.7702 95.1336 61.4445C94.5395 62.1188 94.6244 63.2145 95.3033 63.8045C95.3882 63.8888 95.3882 63.8888 95.473 63.973L95.7276 64.1416Z" fill="black"/>
<path d="M115.247 104.177L104.724 91.7027C103.62 90.4384 101.668 90.1856 100.395 91.2813L100.311 91.3656L99.3771 90.1856L99.6316 89.9327C103.196 86.3927 105.233 81.5042 105.233 76.447C105.233 74.4242 104.893 72.4856 104.299 70.547C103.96 69.7042 103.026 69.1984 102.093 69.5356C101.244 69.8727 100.82 70.7156 101.074 71.5584C103.79 79.7342 99.2922 88.5842 91.0603 91.2813C82.8284 93.9784 73.9176 89.5113 71.2019 81.3356C68.4862 73.1599 72.9841 64.3099 81.216 61.6127C82.8284 61.107 84.5257 60.8542 86.1381 60.8542C88.09 60.8542 90.0419 61.1913 91.8241 61.9499C92.6727 62.287 93.6911 61.8656 94.0306 61.0227C94.37 60.1799 93.9457 59.1685 93.0971 58.8313C83.2527 54.7856 72.0506 59.5056 68.0619 69.1984C64.0733 78.8913 68.8257 90.017 78.5852 93.9784C83.3376 96.0013 88.6841 96.0013 93.5214 93.9784C94.6246 93.557 95.7279 92.967 96.7462 92.2927L97.7646 93.4727L97.51 93.7256C96.2371 94.8213 95.9825 96.7599 97.0857 98.0242L107.524 110.498C108.627 111.763 110.579 112.016 111.852 110.92L114.822 108.476C116.095 107.464 116.265 105.526 115.247 104.177ZM109.9 108.138L99.8014 96.0856L102.347 93.9784L112.446 106.031L109.9 108.138Z" fill="black"/>
<path d="M96.4063 23.7684H104.044V51.4984C104.044 52.4255 104.808 53.1841 105.741 53.1841C106.675 53.1841 107.439 52.4255 107.439 51.4984V22.4198C107.439 21.3241 106.505 20.397 105.402 20.397H96.4063C95.4728 20.397 94.709 21.1555 94.709 22.0827C94.709 23.0098 95.4728 23.7684 96.4063 23.7684Z" fill="black"/>
<path d="M78.2455 99.0355H44.4693V23.7684H52.7012C53.6347 23.7684 54.3985 23.0098 54.3985 22.0827C54.3985 21.1555 53.6347 20.397 52.7012 20.397H43.1115C42.0082 20.397 41.0747 21.3241 41.0747 22.4198V100.384C41.0747 101.48 42.0082 102.407 43.1115 102.407H78.2455C79.179 102.407 79.9428 101.648 79.9428 100.721C79.9428 99.7941 79.179 99.0355 78.2455 99.0355Z" fill="black"/>
<path d="M52.7861 41.1315C52.7861 42.0587 53.5499 42.8172 54.4834 42.8172H94.3699C95.3034 42.8172 96.0672 42.0587 96.0672 41.1315C96.0672 40.2044 95.3034 39.4458 94.3699 39.4458H54.4834C53.5499 39.4458 52.7861 40.2044 52.7861 41.1315Z" fill="black"/>
<path d="M70.2683 56.6398C70.2683 55.7127 69.5045 54.9541 68.571 54.9541H54.4834C53.5499 54.9541 52.7861 55.7127 52.7861 56.6398C52.7861 57.567 53.5499 58.3255 54.4834 58.3255H68.571C69.5045 58.3255 70.2683 57.567 70.2683 56.6398Z" fill="black"/>
<path d="M54.6529 74.0028H58.2172C59.1507 74.0028 59.9145 73.2442 59.9145 72.3171C59.9145 71.3899 59.1507 70.6313 58.2172 70.6313H54.6529C53.7194 70.6313 52.9556 71.3899 52.9556 72.3171C52.9556 73.2442 53.7194 74.0028 54.6529 74.0028Z" fill="black"/>
<path d="M54.6529 89.4271H61.7815C62.715 89.4271 63.4788 88.6685 63.4788 87.7414C63.4788 86.8142 62.715 86.0557 61.7815 86.0557H54.6529C53.7194 86.0557 52.9556 86.8142 52.9556 87.7414C52.9556 88.6685 53.7194 89.4271 54.6529 89.4271Z" fill="black"/>
<path d="M57.7084 29.3314H76.8879C77.8214 29.3314 78.5852 28.5728 78.5852 27.6457C78.5852 26.7185 77.8214 25.96 76.8879 25.96H59.5755C60.3392 23.01 62.9701 20.9871 66.0252 20.9871H66.1949C67.1284 20.9871 67.8922 20.3128 67.9771 19.3857C67.9771 19.2171 67.9771 19.0485 67.8922 18.9642C67.7225 18.4585 67.7225 17.9528 67.7225 17.3628C67.5528 13.7385 70.4382 10.62 74.1722 10.4514C77.8214 10.2828 80.9614 13.1485 81.1311 16.8571C81.1311 17.0257 81.1311 17.1942 81.1311 17.3628C81.1311 17.8685 81.0463 18.3742 80.9614 18.88C80.8765 19.3857 80.9614 19.8914 81.3009 20.3128C81.6403 20.7342 82.1495 20.9871 82.6587 20.9028H82.8284C86.4776 20.9028 89.5328 23.8528 89.5328 27.5614C89.5328 28.4885 90.2965 29.2471 91.2301 29.2471C92.1636 29.2471 92.9273 28.4885 92.9273 27.5614C92.9273 22.6728 89.363 18.5428 84.5257 17.7C84.5257 17.5314 84.5257 17.4471 84.5257 17.2785C84.5257 11.7157 80.0279 7.24854 74.4268 7.24854C68.8257 7.24854 64.3279 11.7157 64.3279 17.2785C64.3279 17.4471 64.3279 17.5314 64.3279 17.7C59.4906 18.5428 55.9263 22.6728 55.9263 27.5614C56.0111 28.5728 56.6901 29.3314 57.7084 29.3314Z" fill="black"/>
<path d="M72.0503 17.1098C72.0503 18.4584 73.1535 19.5541 74.5114 19.5541C75.8692 19.5541 76.9725 18.4584 76.9725 17.1098C76.9725 15.7612 75.8692 14.6655 74.5114 14.6655C73.1535 14.6655 72.0503 15.7612 72.0503 17.1098Z" fill="black"/>
</svg>
