<svg width="108" height="110" viewBox="0 0 108 110" fill="none" xmlns="http://www.w3.org/2000/svg">
<path d="M8.75488 82.8197L22.3364 62.2348V20.5986H87.1397V62.5679L100.462 83.8856H8.75488V82.8197Z" fill="white"/>
<path d="M43.4207 42.2498H32.0381V34.7886H45.1022L43.4207 42.2498Z" fill="#02A7CC"/>
<path d="M31.6494 52.2422C31.6494 52.975 32.2315 53.6412 33.0076 53.6412H37.4054C38.1168 53.6412 38.7635 53.0417 38.7635 52.2422C38.7635 51.5094 38.1815 50.8433 37.4054 50.8433H33.0076C32.2315 50.8433 31.6494 51.4428 31.6494 52.2422Z" fill="#282727"/>
<path d="M48.0773 74.0264H63.017C63.5344 74.0264 63.9871 74.3595 64.1811 74.8258L65.4746 77.8902C65.7333 78.5564 65.4746 79.3558 64.8279 79.6223C64.6339 79.6889 64.5045 79.7555 64.3105 79.7555C63.7931 79.7555 46.7192 79.7555 46.7192 79.7555C46.0078 79.7555 46.7839 76.0915 46.7839 75.3587C46.8485 74.6259 47.3659 74.0264 48.0773 74.0264Z" fill="#02A7CC"/>
<path d="M101.95 83.4861L88.6274 62.1684V20.3324C88.6274 19.5996 88.0454 19 87.3339 19H22.1426C21.4312 19 20.8492 19.5996 20.8492 20.3324V62.1684L7.20298 83.4861C6.94428 83.8858 6.94428 84.4187 7.1383 84.8185C7.33232 85.2182 7.78504 85.4846 8.23776 85.4846H100.786C101.239 85.4846 101.692 85.2182 101.886 84.8185C102.209 84.4187 102.209 83.8858 101.95 83.4861ZM10.8247 82.6867L23.1128 63.5007L59.5242 63.634C60.2356 63.634 60.8176 63.0344 60.8176 62.3016C60.8176 61.5688 60.2356 60.9693 59.5242 60.9693H23.4361V21.6647H86.0405V61.0359H79.5084C78.797 61.0359 78.2149 61.6354 78.2149 62.3682C78.2149 63.101 78.797 63.7006 79.5084 63.7006H86.4932L98.6519 82.8865L10.8247 82.6867Z" fill="#2D2C2C"/>
<path d="M81.9009 67.1646H28.0275C27.5748 67.1646 27.1868 67.3644 26.9281 67.7641L24.4058 71.7612C24.0177 72.3608 24.1471 73.1602 24.7938 73.5599C24.9878 73.6931 25.2465 73.7597 25.5052 73.7597C25.8933 73.7597 26.346 73.5599 26.6047 73.1602L28.8036 69.7627H82.0302C82.7416 69.7627 83.3237 69.1631 83.3237 68.4303C83.1944 67.7641 82.6123 67.1646 81.9009 67.1646Z" fill="#2D2C2C"/>
<path d="M63.0169 74.0264H48.0773C47.5599 74.0264 47.1071 74.3595 46.9131 74.8258L45.6196 77.8902C45.3609 78.5564 45.6196 79.3558 46.2664 79.6223C46.4604 79.6889 46.5898 79.7555 46.7838 79.7555C47.3012 79.7555 47.7539 79.489 47.9479 78.9561L48.918 76.6911H63.0169C63.7283 76.6911 64.3104 76.0915 64.3104 75.3587C64.2457 74.6259 63.6637 74.0264 63.0169 74.0264Z" fill="#2D2C2C"/>
<path d="M64.8993 52.9971L63.3086 54.3608L69.6385 62.1948L71.2292 60.8311L64.8993 52.9971Z" fill="#02A7CC"/>
<path d="M50.4692 40.3178C50.0164 39.9181 49.3697 39.9181 48.9817 40.3844C48.5936 40.8507 48.5936 41.5169 49.0463 41.9166L53.9616 46.5799C54.1556 46.7797 54.4143 46.8464 54.673 46.8464H54.7376C54.9963 46.8464 55.3197 46.7131 55.5137 46.4466L67.6077 31.7907C67.9311 31.2578 67.8018 30.5916 67.2844 30.2585C66.8963 29.992 66.3789 30.0587 65.9909 30.3251L54.6083 44.1816L50.4692 40.3178Z" fill="#282727"/>
<path d="M60.6875 33.523C60.8816 33.6562 61.0756 33.7228 61.3343 33.7228C61.9163 33.7228 62.3691 33.2565 62.3691 32.5903C62.3691 32.2572 62.2397 31.9242 61.981 31.7243L61.8517 31.5911C61.399 31.1914 60.7522 31.258 60.3642 31.7243C59.9761 32.1906 60.0408 32.8568 60.4935 33.2565C60.5582 33.2565 60.5582 33.3231 60.6229 33.3231L60.6875 33.523Z" fill="#282727"/>
<path d="M72.976 59.637L66.3793 51.5096C65.6679 50.6436 64.5037 50.5103 63.663 51.2431L63.5983 51.3097L63.0162 50.5103L63.1456 50.3771C65.4092 48.0455 66.7027 44.9144 66.638 41.5835C66.638 40.2512 66.444 38.9854 66.0559 37.7197C65.8619 37.1201 65.2152 36.8537 64.6978 37.0535C64.1804 37.2534 63.857 37.8529 64.051 38.3859C65.7325 43.7153 62.9516 49.5111 57.7777 51.2431C52.6037 52.9752 46.9771 50.1106 45.2956 44.7812C43.6141 39.4518 46.395 33.656 51.569 31.9239C52.6037 31.5909 53.6385 31.391 54.6733 31.391C55.9021 31.391 57.1309 31.5909 58.295 32.0572C58.8124 32.257 59.4592 31.9906 59.6532 31.4576C59.8472 30.9247 59.5885 30.2585 59.0711 30.0586C52.8624 27.4606 45.8777 30.525 43.3554 36.8537C40.8331 43.1824 43.8081 50.4437 49.9521 52.9752C52.9271 54.2409 56.2902 54.2409 59.3298 52.9752C60.0412 52.7087 60.688 52.309 61.3347 51.9093L61.9815 52.7087L61.7874 52.842C60.9467 53.5748 60.8173 54.8405 61.5287 55.6399L68.1255 63.7673C68.8369 64.6333 70.0657 64.6999 70.8418 64.0338L72.7173 62.4349C73.5581 61.7688 73.6874 60.503 72.976 59.637ZM69.613 62.2351L63.2749 54.3742L64.8918 53.0418L71.2298 60.9027L69.613 62.2351Z" fill="#282727"/>
<path d="M31.6494 34.7886C31.6494 35.5214 32.2315 36.1876 33.0076 36.1876H45.4896C46.201 36.1876 46.8478 35.588 46.8478 34.7886C46.8478 33.9892 46.2657 33.3896 45.4896 33.3896H32.9429C32.2315 33.3896 31.6494 34.0558 31.6494 34.7886Z" fill="#282727"/>
<path d="M31.6494 41.8497C31.6494 42.5825 32.2315 43.2486 33.0076 43.2486H43.0967C43.8081 43.2486 44.4548 42.6491 44.4548 41.8497C44.4548 41.0502 43.8728 40.4507 43.0967 40.4507H32.9429C32.2315 40.5173 31.6494 41.1169 31.6494 41.8497Z" fill="#282727"/>
</svg>
