<svg width="166" height="124" viewBox="0 0 166 124" fill="none" xmlns="http://www.w3.org/2000/svg">
<path d="M105.432 104.514H70.4378C65.5027 104.514 61.4648 100.529 61.4648 95.6573V29.2287C61.4648 24.3573 65.5027 20.3716 70.4378 20.3716H105.432C110.368 20.3716 114.405 24.3573 114.405 29.2287V95.6573C114.405 100.529 110.368 104.514 105.432 104.514Z" fill="white"/>
<path d="M79.8595 51.6372H56.2605C54.466 51.6372 53.0303 53.0544 53.0303 54.8258V69.7058C53.0303 71.4772 54.466 72.8944 56.2605 72.8944H68.3741C68.9124 72.8944 69.3611 73.0715 69.72 73.4258L75.0141 78.6515V74.6658C75.0141 73.6029 75.8216 72.8058 76.8984 72.8058H79.8595C81.6541 72.8058 83.0897 71.3886 83.0897 69.6172V54.8258C83 53.0544 81.5643 51.6372 79.8595 51.6372Z" fill="#01A9CE"/>
<path d="M79.8594 48.5371H56.2605C52.761 48.5371 49.8896 51.3714 49.8896 54.8257V69.7057C49.8896 73.16 52.761 75.9943 56.2605 75.9943H67.8356L74.2064 82.2828C74.6551 82.7257 75.2832 82.9914 75.8215 82.9914C76.0907 82.9914 76.4496 82.9028 76.7188 82.8143C77.6161 82.46 78.1545 81.5743 78.1545 80.6885V76.0828H79.8594C83.3588 76.0828 86.2302 73.2485 86.2302 69.7943V54.8257C86.1405 51.3714 83.3588 48.5371 79.8594 48.5371ZM82.5513 54.8257V69.7057C82.5513 71.2114 81.2951 72.4514 79.7697 72.4514H76.8983C75.6421 72.4514 74.5653 73.5143 74.5653 74.7543V77.5885L69.9891 73.0714C69.5405 72.6285 68.9123 72.3628 68.374 72.3628H56.2605C54.7351 72.3628 53.4788 71.1228 53.4788 69.6171V54.8257C53.4788 53.32 54.7351 52.08 56.2605 52.08H79.8594C81.3848 52.08 82.5513 53.32 82.5513 54.8257Z" fill="black"/>
<path d="M112.431 91.2286V94.5944C112.431 99.1115 108.752 102.743 104.176 102.743H71.5142C66.938 102.743 63.2591 99.1115 63.2591 94.5944V91.2286V87.6858V79.4486C63.2591 78.4744 62.4515 77.6772 61.4645 77.6772C60.4775 77.6772 59.6699 78.4744 59.6699 79.4486V94.5944C59.6699 101.06 64.964 106.286 71.5142 106.286H104.176C110.726 106.286 116.02 101.06 116.02 94.5944V29.4058C116.02 22.9401 110.726 17.7144 104.176 17.7144H71.5142C64.964 17.7144 59.6699 22.9401 59.6699 29.4058V44.9944C59.6699 45.9686 60.4775 46.7658 61.4645 46.7658C62.4515 46.7658 63.2591 45.9686 63.2591 44.9944V36.3144H112.431V87.6858V91.2286ZM112.431 29.4058V32.7715H63.2591V29.4058C63.2591 24.8886 66.938 21.2572 71.5142 21.2572H104.176C108.752 21.2572 112.431 24.8886 112.431 29.4058Z" fill="black"/>
<path d="M91.3443 25.2427H84.3454C83.3583 25.2427 82.5508 26.0398 82.5508 27.0141C82.5508 27.9884 83.3583 28.7855 84.3454 28.7855H91.2546C92.2416 28.7855 93.0492 27.9884 93.0492 27.0141C93.0492 26.0398 92.3313 25.2427 91.3443 25.2427Z" fill="black"/>
<path d="M63.4385 65.4539C63.4385 65.8967 63.6179 66.3396 63.9769 66.6939C64.6947 67.4025 65.8612 67.4025 66.4893 66.6939L67.925 65.2767L69.3606 66.6939C69.7196 67.0482 70.1682 67.2253 70.6169 67.2253C71.0655 67.2253 71.5142 67.0482 71.8731 66.6939C72.5909 65.9853 72.5909 64.9224 71.8731 64.2139L70.4374 62.7967L71.8731 61.3796C72.232 61.0253 72.4114 60.5825 72.4114 60.1396C72.4114 59.6967 72.232 59.2539 71.8731 58.8996C71.1552 58.191 69.9888 58.191 69.3606 58.8996L67.925 60.3167L66.4893 58.8996C65.7715 58.191 64.605 58.191 63.9769 58.8996C63.6179 59.2539 63.4385 59.6967 63.4385 60.1396C63.4385 60.5825 63.6179 61.0253 63.9769 61.3796L65.4125 62.7967L63.9769 64.2139C63.6179 64.5682 63.4385 65.011 63.4385 65.4539Z" fill="black"/>
<path d="M107.047 50.3085C107.047 49.3343 106.239 48.5371 105.252 48.5371H92.6901C91.7031 48.5371 90.8955 49.3343 90.8955 50.3085C90.8955 51.2828 91.7031 52.08 92.6901 52.08H105.252C106.239 52.08 107.047 51.2828 107.047 50.3085Z" fill="black"/>
<path d="M109.47 92.1142C109.47 91.1399 108.662 90.3428 107.675 90.3428H68.194C67.207 90.3428 66.3994 91.1399 66.3994 92.1142C66.3994 93.0885 67.207 93.8856 68.194 93.8856H107.675C108.662 93.8856 109.47 93.0885 109.47 92.1142Z" fill="black"/>
<path d="M92.6901 58.4569H96.6382C97.6252 58.4569 98.4328 57.6598 98.4328 56.6855C98.4328 55.7112 97.6252 54.9141 96.6382 54.9141H92.6901C91.7031 54.9141 90.8955 55.7112 90.8955 56.6855C90.8955 57.6598 91.7031 58.4569 92.6901 58.4569Z" fill="black"/>
<path d="M103.817 56.6855C103.817 55.7112 103.009 54.9141 102.022 54.9141H101.304C100.317 54.9141 99.5098 55.7112 99.5098 56.6855C99.5098 57.6598 100.317 58.4569 101.304 58.4569H102.022C103.009 58.4569 103.817 57.6598 103.817 56.6855Z" fill="black"/>
<path d="M92.6901 74.3998H98.4328C99.4198 74.3998 100.227 73.6027 100.227 72.6284C100.227 71.6541 99.4198 70.8569 98.4328 70.8569H92.6901C91.7031 70.8569 90.8955 71.6541 90.8955 72.6284C90.8955 73.6027 91.7031 74.3998 92.6901 74.3998Z" fill="black"/>
<path d="M92.6901 80.7772H98.8815C99.8685 80.7772 100.676 79.9801 100.676 79.0058C100.676 78.0315 99.8685 77.2344 98.8815 77.2344H92.6901C91.7031 77.2344 90.8955 78.0315 90.8955 79.0058C90.8955 79.9801 91.7031 80.7772 92.6901 80.7772Z" fill="black"/>
<path d="M103.548 80.7772H104.265C105.252 80.7772 106.06 79.9801 106.06 79.0058C106.06 78.0315 105.252 77.2344 104.265 77.2344H103.548C102.56 77.2344 101.753 78.0315 101.753 79.0058C101.753 79.9801 102.56 80.7772 103.548 80.7772Z" fill="black"/>
</svg>
