<?xml version="1.0" encoding="utf-8"?>
<!-- Generator: Adobe Illustrator 26.1.0, SVG Export Plug-In . SVG Version: 6.00 Build 0)  -->
<svg version="1.1" id="Capa_1" xmlns="http://www.w3.org/2000/svg" xmlns:xlink="http://www.w3.org/1999/xlink" x="0px" y="0px"
	 viewBox="0 0 282.7 60.7" style="enable-background:new 0 0 282.7 60.7;" xml:space="preserve">
<style type="text/css">
	.st0{fill:#FFFFFF;}
</style>
<rect y="0" class="st0" width="0" height="43.2"/>
<path class="st0" d="M9.1,37.9l5-2.9h0.1l0.2-0.1l0.2-0.1h0.2H15h0.4h0.2h0.2l0.2,0.1l0.2,0.1h0.1l5,2.9l4.4,2.5l4.7,2.7V0H0v43.2
	l4.7-2.7L9.1,37.9z"/>
<path class="st0" d="M25.7,45.6L21.2,43l-5-2.9l0,0c-0.7-0.4-1.5-0.4-2.2,0l-5,2.9l-4.4,2.5L0,48.3l0,0v12.4h30.3V48.3L25.7,45.6z"
	/>
<path class="st0" d="M50.8,28.7c-0.7,0-1.1,0.5-1.1,1.4v7.2h-9.5v-7.2c0-0.9-0.4-1.4-1.1-1.4S38,29.2,38,30.1v16.6
	c0,0.9,0.4,1.4,1.1,1.4s1.1-0.5,1.1-1.4v-7.3h9.5v7.3c0,0.9,0.4,1.4,1.1,1.4s1.1-0.5,1.1-1.4V30.1C51.9,29.2,51.5,28.7,50.8,28.7z"
	/>
<path class="st0" d="M56,28.7c-0.6,0-1.1,0.5-1.1,1.1c0,0.1,0,0.1,0,0.2v16.9c-0.1,0.6,0.3,1.2,1,1.3c0.6,0.1,1.2-0.3,1.3-1
	c0-0.1,0-0.2,0-0.3V29.9c0.1-0.6-0.3-1.2-0.9-1.2C56.1,28.7,56.1,28.7,56,28.7z"/>
<path class="st0" d="M65.6,28.8h-4.4c-0.6,0-1.2,0.5-1.2,1.1c0,0.1,0,0.1,0,0.2v16.7c-0.1,0.6,0.3,1.2,1,1.3c0.6,0.1,1.2-0.3,1.3-1
	c0-0.1,0-0.2,0-0.3v-6h3.4c3.2,0,5.8-2.6,5.8-5.8c0-0.1,0-0.1,0-0.2c0.2-3.1-2.2-5.8-5.3-6C65.9,28.8,65.7,28.8,65.6,28.8z
	 M65.5,38.8h-3.3v-7.9h3.2c2.8,0,3.8,2.1,3.8,4c0.1,2-1.5,3.8-3.5,3.9C65.6,38.8,65.5,38.8,65.5,38.8z"/>
<path class="st0" d="M80.3,28.7c-5.1,0-7.9,4.7-7.9,9.7s2.8,9.7,7.9,9.7s7.9-4.8,7.9-9.7S85.4,28.7,80.3,28.7z M80.3,46.1
	c-4,0-5.5-4-5.5-7.7s1.5-7.7,5.5-7.7s5.5,4,5.5,7.7S84.3,46.1,80.3,46.1z"/>
<path class="st0" d="M99,28.8h-8.9c-0.6,0-1.1,0.5-1.1,1.1s0.5,1.1,1.1,1.1h3.4v15.8c-0.1,0.6,0.3,1.2,1,1.3c0.6,0.1,1.2-0.3,1.3-1
	c0-0.1,0-0.2,0-0.3V31H99c0.6,0,1.1-0.5,1.1-1.1S99.6,28.8,99,28.8L99,28.8z"/>
<path class="st0" d="M109.2,31c0.6,0,1.1-0.5,1.1-1.1s-0.5-1.1-1.1-1.1h-6.4c-0.6,0-1.2,0.4-1.2,1.1c0,0.1,0,0.2,0,0.2v16.6
	c-0.1,0.6,0.4,1.2,1,1.3c0.1,0,0.1,0,0.2,0h6.4c0.5,0.1,1-0.3,1.1-0.9c0-0.1,0-0.1,0-0.2c0.1-0.5-0.4-1-0.9-1.1c-0.1,0-0.1,0-0.2,0
	h-5.3v-6.3h4.9c0.6,0,1.1-0.5,1.1-1.1c0-0.6-0.5-1.1-1.1-1.1h-4.9V31H109.2z"/>
<path class="st0" d="M124.8,44.3c-0.9,0-2.1,1.7-4.8,1.7c-3.8,0-5.5-4-5.5-7.7s1.6-7.7,5.6-7.7c2.8,0,3.3,1.9,4.3,1.9
	c0.6,0,0.9-0.5,0.9-1.1c0-1-2-2.8-5.2-2.8c-5.3,0-8,4.7-8,9.7s2.7,9.7,7.9,9.7c3.2,0,5.7-1.5,5.7-2.7
	C125.7,44.8,125.3,44.3,124.8,44.3z"/>
<path class="st0" d="M135.6,30.1c-0.3-0.8-0.7-1.5-1.6-1.5s-1.3,0.6-1.6,1.5l-5.6,15.8c-0.1,0.4-0.2,0.8-0.3,1.2c0,0.6,0.4,1,1,1
	c0,0,0,0,0.1,0c0.5,0,1-0.4,1.1-0.9l1.2-3.4h8.3l1.2,3.4c0.1,0.5,0.6,0.9,1.1,0.9c0.6,0,1-0.4,1.1-0.9c0,0,0,0,0-0.1
	c-0.1-0.4-0.2-0.8-0.3-1.2L135.6,30.1z M130.5,41.7l3.5-10.3l0,0l3.5,10.3L130.5,41.7z"/>
<path class="st0" d="M148.1,39.4h1c2.7-0.1,4.9-1.5,4.9-5.4c-0.1-2.9-2.5-5.2-5.4-5.2c0,0,0,0-0.1,0h-4.1c-0.6,0-1.2,0.4-1.2,1.1
	c0,0.1,0,0.1,0,0.2v16.7c-0.1,0.6,0.3,1.2,1,1.3c0.6,0.1,1.2-0.3,1.3-1c0-0.1,0-0.2,0-0.3v-7.3l6.9,8c0.2,0.3,0.6,0.5,1,0.5
	c0.5,0,1-0.4,1-0.9c0-0.4-0.1-0.8-0.4-1.1L148.1,39.4z M145.4,30.9h3c1.8-0.1,3.3,1.3,3.4,3.1c0,0.1,0,0.1,0,0.2
	c0,2.5-1,3.5-3.3,3.5h-3L145.4,30.9z"/>
<path class="st0" d="M157.4,28.7c-0.6,0-1.1,0.5-1.1,1.1c0,0.1,0,0.1,0,0.2v16.9c-0.1,0.6,0.3,1.2,1,1.3c0.6,0.1,1.2-0.3,1.3-1
	c0-0.1,0-0.2,0-0.3V29.9c0.1-0.6-0.3-1.2-0.9-1.2C157.5,28.7,157.4,28.7,157.4,28.7z"/>
<path class="st0" d="M168.6,28.7c-5.1,0-7.9,4.7-7.9,9.7s2.7,9.7,7.9,9.7s7.9-4.8,7.9-9.7S173.7,28.7,168.6,28.7z M168.6,46.1
	c-4,0-5.5-4-5.5-7.7s1.5-7.7,5.5-7.7s5.5,4,5.5,7.7S172.6,46.1,168.6,46.1z"/>
<path class="st0" d="M186.6,33.4c0-1.5,1.2-2.7,2.6-2.7c0.1,0,0.1,0,0.2,0c2.2,0,2.6,1.2,3.5,1.2c0.6,0,1-0.4,1-1c0,0,0,0,0-0.1
	c0-1.2-2.2-2.2-4.4-2.2c-2.8-0.1-5.2,2.1-5.3,4.9c0,6.2,8.5,4,8.5,8.6c0.1,2-1.4,3.7-3.4,3.9c-0.1,0-0.2,0-0.3,0
	c-2.3,0-3.3-1.5-4.1-1.5s-0.9,0.6-0.9,1.2c0,1.3,2.6,2.3,5,2.3c3.2,0.1,5.9-2.4,6.1-5.6c0-0.1,0-0.3,0-0.4
	C195.2,35.6,186.6,37.6,186.6,33.4z"/>
<path class="st0" d="M204.7,31c0.6,0,1.1-0.5,1.1-1.1s-0.5-1.1-1.1-1.1h-6.4c-0.6,0-1.2,0.4-1.2,1.1c0,0.1,0,0.1,0,0.2v16.6
	c-0.1,0.6,0.3,1.2,1,1.3c0.1,0,0.1,0,0.2,0h6.4c0.6,0,1-0.4,1.1-0.9c0-0.1,0-0.1,0-0.2c0.1-0.5-0.4-1-0.9-1.1c-0.1,0-0.1,0-0.2,0
	h-5.4v-6.3h4.9c0.6,0,1.1-0.5,1.1-1.1c0-0.6-0.5-1.1-1.1-1.1h-4.9V31H204.7z"/>
<path class="st0" d="M221.6,37h-3.7c-0.6,0-1.1,0.5-1.1,1.1c0,0.6,0.5,1.1,1.1,1.1l0,0h3.1v1.1c0,2.6-1.7,5.8-5.2,5.8
	c-4.2,0-5.8-4-5.8-7.7s1.6-7.7,5.7-7.7c3.2,0,4.1,2.1,5.2,2.1c0.6,0,1-0.5,1-1.1c0,0,0,0,0,0c0-1-2.5-3.1-6.2-3.1
	c-5.6,0-8.2,4.7-8.2,9.7s2.7,9.7,7.9,9.7c6.1,0,7.7-4.6,7.7-9.2C223.2,37.4,222.7,37,221.6,37z"/>
<path class="st0" d="M238,28.7c-0.6,0-1.1,0.5-1.1,1.1c0,0.1,0,0.1,0,0.2v11.3c0,2.6-2.1,4.7-4.7,4.7s-4.7-2.1-4.7-4.7c0,0,0,0,0,0
	V29.9c0.1-0.6-0.3-1.2-0.9-1.2c-0.1,0-0.1,0-0.2,0c-0.7,0-1.1,0.5-1.1,1.3v10.4c0,6.4,3.9,7.7,7,7.7s7-1.3,7-7.7V29.9
	c0.1-0.6-0.3-1.2-0.9-1.3C238.2,28.7,238.1,28.7,238,28.7z"/>
<path class="st0" d="M247,39.4h0.9c2.7-0.1,4.9-1.5,4.9-5.4c-0.1-2.9-2.5-5.2-5.4-5.2c0,0,0,0-0.1,0h-4.1c-0.6-0.1-1.2,0.4-1.2,1
	c0,0.1,0,0.2,0,0.2v16.7c-0.1,0.6,0.3,1.2,1,1.3c0.6,0.1,1.2-0.3,1.3-1c0-0.1,0-0.2,0-0.3v-7.3l6.9,8c0.2,0.3,0.6,0.5,1,0.5
	c0.5,0,1-0.4,1-0.9c0-0.4-0.1-0.8-0.4-1.1L247,39.4z M244.3,30.9h3c1.8-0.1,3.3,1.3,3.4,3.1c0,0.1,0,0.1,0,0.2c0,2.5-1,3.5-3.3,3.5
	h-3L244.3,30.9z"/>
<path class="st0" d="M262.3,28.7c-5.1,0-7.9,4.7-7.9,9.7s2.8,9.7,7.9,9.7s7.9-4.8,7.9-9.7S267.4,28.7,262.3,28.7z M262.3,46.1
	c-4,0-5.5-4-5.5-7.7s1.5-7.7,5.5-7.7s5.5,4,5.5,7.7S266.4,46.1,262.3,46.1z"/>
<path class="st0" d="M274,33.4c0-1.5,1.1-2.7,2.6-2.7c0.1,0,0.2,0,0.2,0c2.2,0,2.5,1.2,3.5,1.2c0.6,0,1-0.5,1-1c0,0,0,0,0,0
	c0-1.2-2.2-2.2-4.4-2.2c-2.8-0.1-5.2,2.1-5.3,4.9c0,6.2,8.5,4,8.5,8.6c0.1,2-1.4,3.7-3.4,3.9c-0.1,0-0.2,0-0.3,0
	c-2.3,0-3.3-1.5-4.1-1.5s-0.9,0.6-0.9,1.2c0,1.3,2.6,2.3,5,2.3c3.2,0.1,5.9-2.4,6.1-5.6c0-0.1,0-0.3,0-0.4
	C282.6,35.6,274,37.6,274,33.4z"/>
</svg>
