<svg width="17" height="17" viewBox="0 0 17 17" fill="none" xmlns="http://www.w3.org/2000/svg">
<path fill-rule="evenodd" clip-rule="evenodd" d="M8.5 0.922852C4.084 0.922852 0.5 4.50685 0.5 8.92285C0.5 13.3389 4.084 16.9229 8.5 16.9229C12.916 16.9229 16.5 13.3389 16.5 8.92285C16.5 4.50685 12.916 0.922852 8.5 0.922852ZM8.49971 12.9228C8.05971 12.9228 7.69971 12.5628 7.69971 12.1228V8.9228C7.69971 8.4828 8.05971 8.1228 8.49971 8.1228C8.93971 8.1228 9.29971 8.4828 9.29971 8.9228V12.1228C9.29971 12.5628 8.93971 12.9228 8.49971 12.9228ZM7.69971 6.52285H9.29971V4.92285H7.69971V6.52285Z" fill="#34BBDA"/>
</svg>
