<svg width="108" height="110" viewBox="0 0 108 110" fill="none" xmlns="http://www.w3.org/2000/svg">
<path d="M32.9562 88.1932H76.4083C76.4083 88.1932 85.9963 84.7869 85.9963 77.2932C85.9963 69.7994 79.1963 66.3932 76.4762 66.3932H62.8762V48.6807C62.8762 48.6807 61.5162 40.5057 54.0362 40.5057V31.6494H58.7962V21.4307H30.2362V30.9682H34.3162V40.5057C34.3162 40.5057 26.1562 41.8682 26.1562 48.6807V83.4244C26.1563 83.4244 27.5162 88.1932 32.9562 88.1932Z" fill="white"/>
<path d="M45.1959 67.7556L40.5719 72.5243L39.7559 80.0181L46.5559 87.5118H62.8759V66.3931L45.1959 67.7556Z" fill="#01A9CE"/>
<path d="M58.116 21.4307H30.916V30.9682H58.116V21.4307Z" fill="#01A9CE"/>
<path d="M75.1164 89.147H50.2284C47.0324 89.147 43.9724 87.9208 41.7284 85.6045C39.4844 83.3564 38.1924 80.2908 38.1924 77.0889C38.1924 70.4126 43.5644 65.0308 50.2284 65.0308H75.1164C78.3124 65.0308 81.3724 66.257 83.6164 68.5733C85.8604 70.8214 87.1524 73.887 87.1524 77.0889C87.1524 83.697 81.7124 89.147 75.1164 89.147ZM50.2284 67.7558C45.1284 67.7558 40.9804 71.9114 40.9804 77.0208C40.9804 79.4733 41.9324 81.8576 43.7004 83.5608C45.4684 85.332 47.7804 86.2858 50.2284 86.2858H75.1164C80.2164 86.2858 84.3644 82.1301 84.3644 77.0208C84.3644 74.5683 83.4124 72.1839 81.6444 70.4126C79.8764 68.6414 77.5644 67.6876 75.1164 67.6876H50.2284V67.7558Z" fill="black"/>
<path d="M62.6725 83.697C61.9245 83.697 61.3125 83.0839 61.3125 82.3345V66.3933C61.3125 65.6439 61.9245 65.0308 62.6725 65.0308C63.4205 65.0308 64.0325 65.6439 64.0325 66.3933V82.2664C64.0325 83.0839 63.4205 83.697 62.6725 83.697Z" fill="black"/>
<path d="M79.4 79.814C78.652 79.814 78.04 79.2009 78.04 78.4515C78.04 75.9309 76 73.8871 73.484 73.8871C72.736 73.8871 72.124 73.274 72.124 72.5246C72.124 71.7752 72.736 71.1621 73.484 71.1621C77.496 71.1621 80.76 74.4321 80.76 78.4515C80.76 79.2009 80.148 79.814 79.4 79.814Z" fill="black"/>
<path d="M36.356 89.1469H31.936C28.128 89.1469 25 86.0131 25 82.1981V49.0894C25 46.4325 26.02 43.98 27.856 42.0725C29.42 40.5056 31.392 39.5519 33.5 39.2794V31.445C33.5 30.6956 34.112 30.0825 34.86 30.0825H54.104C54.852 30.0825 55.464 30.6956 55.464 31.445V39.3475C60.292 40.0288 63.964 44.1844 63.964 49.1575V59.5125C63.964 60.2619 63.352 60.875 62.604 60.875C61.856 60.875 61.244 60.2619 61.244 59.5125V49.0894C61.244 45.1381 58.048 41.9363 54.104 41.9363C53.356 41.9363 52.744 41.3231 52.744 40.5738V32.8075H36.288V40.6419C36.288 41.3913 35.676 42.0044 34.928 42.0044C33.024 42.0044 31.256 42.7538 29.896 44.1163C28.536 45.4788 27.788 47.25 27.788 49.1575V82.1981C27.788 84.5144 29.692 86.3538 31.936 86.3538H36.356C37.104 86.3538 37.716 86.9669 37.716 87.7163C37.716 88.5338 37.104 89.1469 36.356 89.1469Z" fill="black"/>
<path d="M58.5921 32.8075H30.4401C29.6921 32.8075 29.0801 32.1944 29.0801 31.445V21.3625C29.0801 20.6131 29.6921 20 30.4401 20H58.5921C59.3401 20 59.9521 20.6131 59.9521 21.3625V31.3769C59.9521 32.1944 59.3401 32.8075 58.5921 32.8075ZM31.8001 30.0144H57.1641V22.725H31.8001V30.0144Z" fill="black"/>
<path d="M33.7037 54.6073H33.4996C32.7516 54.6073 32.1396 53.9942 32.1396 53.2448C32.1396 52.4954 32.7516 51.8823 33.4996 51.8823H33.7037C34.4517 51.8823 35.0637 52.4954 35.0637 53.2448C35.0637 53.9942 34.5197 54.6073 33.7037 54.6073Z" fill="black"/>
<path d="M55.4638 54.6073H38.3278C37.5798 54.6073 36.9678 53.9942 36.9678 53.2448C36.9678 52.4954 37.5798 51.8823 38.3278 51.8823H55.5318C56.2798 51.8823 56.8918 52.4954 56.8918 53.2448C56.8918 53.9942 56.2798 54.6073 55.4638 54.6073Z" fill="black"/>
</svg>
