<svg width="108" height="110" viewBox="0 0 108 110" fill="none" xmlns="http://www.w3.org/2000/svg">
<path d="M27.9951 59.7425L21.4762 46.6283C21.4762 46.6283 17.8546 32.0568 29.4437 29.8711C41.0329 27.6854 49.0005 32.0568 49.0005 32.0568C49.0005 32.0568 56.2437 25.4997 69.2816 31.3283C69.2816 31.3283 79.4221 41.5283 65.66 59.7425C65.66 59.7425 75.0762 73.5854 57.6924 91.0711C57.6924 91.0711 52.6221 67.0283 47.5518 67.7568C47.5518 67.7568 41.0329 64.114 37.4113 91.0711C37.4113 91.0711 22.9248 80.8711 27.9951 59.7425Z" fill="white"/>
<path d="M64.293 27.7043C62.3373 27.1943 60.0919 26.9757 57.7017 27.1215C48.9373 27.6315 40.6076 35.4272 40.2454 35.7186C39.5936 36.3015 39.5936 37.3215 40.173 37.9772C40.4627 38.3415 40.8973 38.4872 41.3319 38.4872C41.6941 38.4872 42.1287 38.3415 42.4184 38.05C42.4908 37.9772 50.3135 30.7643 57.9914 30.2543C60.0195 30.1086 61.9027 30.3272 63.5687 30.7643C64.4379 30.9829 65.3071 30.4729 65.5244 29.6715C65.6692 28.7972 65.1622 27.9229 64.293 27.7043Z" fill="#1D1D1B"/>
<path d="M70.0158 52.6941C69.2191 52.257 68.2774 52.6213 67.9153 53.3498C67.0461 55.0255 66.032 56.7013 64.8731 58.377C64.511 58.887 64.511 59.4698 64.7283 60.0527C68.3499 66.9741 66.1045 76.1541 62.7726 82.4198C60.8169 86.0627 59.0785 87.8841 58.1369 88.5398C57.7747 87.447 57.3401 85.4798 56.9056 83.8041C56.1812 80.5255 55.2396 76.4455 53.8634 73.167C53.2115 71.5641 51.1834 66.6827 47.1272 66.6827C42.9985 66.6827 41.1877 71.5641 40.5358 73.167C39.3045 76.4455 38.4353 80.5255 37.7834 83.8041C37.4212 85.4798 37.0591 87.3741 36.7693 88.467C35.9001 87.8113 34.3066 86.1355 32.4958 82.857C29.0915 76.6641 26.3391 66.9741 29.5985 59.9798C29.8158 59.4698 29.8158 58.887 29.4537 58.377C23.152 49.4155 21.3412 40.1627 24.9628 34.7713C27.7877 30.5455 33.5823 29.2341 41.3326 30.9827C42.2018 31.2013 42.9985 30.6184 43.2158 29.817C43.4331 28.9427 42.8537 28.1413 42.0569 27.9227C29.7434 25.0813 24.4558 29.8898 22.3553 33.0227C20.1823 36.2284 19.5304 40.527 20.3272 45.3355C21.1239 49.9255 23.2245 54.7341 26.4115 59.4698C24.8904 63.3313 24.6007 68.1398 25.6872 73.3127C26.6288 77.757 28.512 82.4927 30.8299 86.2084C32.4958 88.8313 34.9585 91.9641 37.3488 91.9641C39.0147 91.9641 39.5942 90.0698 39.8839 88.977C40.2461 87.8113 40.5358 86.2084 40.898 84.387C41.5499 81.1813 42.3466 77.247 43.5056 74.2598C44.3023 72.2198 45.5337 69.8155 47.1272 69.8155C48.7207 69.8155 50.0969 72.2927 50.9661 74.3327C52.1974 77.3927 53.1391 81.327 53.8634 84.4598C54.298 86.2813 54.6601 87.8841 55.0223 89.0498C55.312 90.0698 55.8915 91.9641 57.5574 91.9641C60.4547 91.9641 63.4969 87.447 64.6558 85.4798C68.712 78.7041 71.8991 67.9941 67.9153 59.397C68.9293 57.867 69.871 56.337 70.6677 54.807C71.1023 54.0784 70.7401 53.1313 70.0158 52.6941Z" fill="#1D1D1B"/>
<path d="M86.2408 36.447C86.1684 36.447 82.1846 35.3542 78.4181 32.0756C74.8689 29.0156 74.2895 24.6442 74.2895 24.5713C74.2171 23.7699 73.5652 23.187 72.696 23.187C71.8992 23.187 71.2473 23.7699 71.1025 24.5713C71.1025 24.5713 70.5954 28.287 66.9014 32.1484C63.2073 36.0099 59.5857 36.3013 59.4408 36.3742C58.6441 36.447 57.9922 37.1027 57.9922 37.9042C57.9922 38.7056 58.5716 39.4342 59.3684 39.507C59.4408 39.507 63.2073 40.017 66.9738 43.7327C70.6679 47.3756 71.1749 51.237 71.1749 51.3099C71.2473 52.1113 71.9716 52.6942 72.7684 52.6942C73.6376 52.6942 74.3619 51.9656 74.3619 51.0913V51.0184C74.3619 50.5813 74.6516 47.157 78.4906 43.7327C82.6916 39.9442 86.096 39.4342 86.096 39.4342C86.8203 39.3613 87.3998 38.7056 87.4722 37.977C87.4722 37.3213 86.9652 36.5927 86.2408 36.447Z" fill="#1D1D1B"/>
<path d="M52.7767 18.3057C52.7767 18.3057 54.4427 18.5243 56.0362 20.1271C57.6297 21.6571 57.847 23.3329 57.847 23.4057C57.9194 23.9886 58.354 24.4257 58.9335 24.4257H59.0059C59.5854 24.3529 60.02 23.9157 60.02 23.4057V23.3329C60.02 23.3329 60.02 23.3329 60.02 23.26C60.02 22.9686 60.1648 21.6571 61.7584 20.2C63.4967 18.5971 64.9454 18.3786 65.0902 18.3057C65.5973 18.2329 66.0319 17.8686 66.0319 17.2857C66.1043 16.7757 65.7421 16.2657 65.1627 16.12C65.1627 16.12 63.3519 15.61 61.6859 14.2257C60.1648 12.9143 59.9476 11.02 59.9476 11.02C59.8751 10.4371 59.4405 10 58.8611 10C58.2816 10 57.847 10.4371 57.7746 11.02C57.7746 11.02 57.5573 12.6229 55.9638 14.2986C54.3703 15.9743 52.8492 16.12 52.7767 16.12C52.1973 16.1929 51.7627 16.63 51.7627 17.2129C51.7627 17.7229 52.1973 18.2329 52.7767 18.3057Z" fill="#1D1D1B"/>
<path d="M76.3174 41.4742C74.579 43.0771 73.4201 44.68 72.6233 46.1371C71.899 44.68 70.7401 43.0771 69.219 41.5471C67.5531 39.9442 65.8871 38.8514 64.4385 38.05C65.8871 37.3214 67.5531 36.1557 69.219 34.4071C70.8125 32.7314 71.899 31.1285 72.6958 29.6714C73.4925 31.2742 74.6515 32.95 76.3898 34.48C78.1282 36.01 79.939 37.1028 81.4601 37.9042C79.939 38.6328 78.1282 39.7257 76.3174 41.4742Z" fill="#01A9CE"/>
<path d="M57.5575 15.8285C58.137 15.2457 58.4992 14.6628 58.8613 14.1528C59.2235 14.7357 59.6581 15.3185 60.31 15.9014C60.8894 16.4114 61.5413 16.8485 62.1208 17.14C61.5413 17.5043 60.9619 17.9414 60.31 18.5243C59.6581 19.1071 59.2235 19.69 58.8613 20.2C58.4992 19.69 58.0646 19.1071 57.5575 18.5243C56.9781 17.9414 56.3986 17.5043 55.8916 17.2128C56.3986 16.9214 56.9781 16.4114 57.5575 15.8285Z" fill="#01A9CE"/>
</svg>
