<svg width="157" height="118" viewBox="0 0 148 139" fill="none" xmlns="http://www.w3.org/2000/svg">
<path d="M89.5968 99.1127C89.5968 79.8943 72.287 55.9712 50.9293 55.9712C29.5716 55.9712 12.2617 79.9032 12.2617 99.1127C12.2617 118.322 29.5716 129.915 50.9293 129.915C72.287 129.915 89.5968 118.331 89.5968 99.1127Z" fill="white" stroke="black" stroke-width="3" stroke-linecap="round" stroke-linejoin="round"/>
<path d="M42.3275 61.0927C42.2476 60.782 42.1944 56.2815 42.15 55.9619C19.3099 58.7848 2 76.1834 2 87.0309C2 89.543 2.89656 91.78 4.45001 93.7684C10.0158 100.897 22.9671 96.6445 21.8575 88.034C21.8131 87.7055 21.7954 87.3682 21.7954 87.0309C21.7954 77.1066 30.4326 65.2027 42.3275 61.0839V61.0927Z" fill="white" stroke="black" stroke-width="3" stroke-linecap="round" stroke-linejoin="round"/>
<path d="M60.9238 61.0927C61.0037 60.782 61.057 56.2815 61.1014 55.9619C83.9415 58.7848 101.251 76.1834 101.251 87.0309C101.251 89.543 100.355 91.78 98.8013 93.7684C93.2356 100.897 80.2842 96.6445 81.3938 88.034C81.4382 87.7055 81.456 87.3682 81.456 87.0309C81.456 77.1066 72.8188 65.2027 60.9238 61.0839V61.0927Z" fill="white" stroke="black" stroke-width="3" stroke-linecap="round" stroke-linejoin="round"/>
<path d="M25.5044 25.0088C31.8581 25.0088 37.0088 19.8581 37.0088 13.5044C37.0088 7.1507 31.8581 2 25.5044 2C19.1507 2 14 7.1507 14 13.5044C14 19.8581 19.1507 25.0088 25.5044 25.0088Z" fill="#03B2CF" stroke="black" stroke-width="3" stroke-linecap="round" stroke-linejoin="round"/>
<path d="M76.1294 25.0088C82.4831 25.0088 87.6338 19.8581 87.6338 13.5044C87.6338 7.1507 82.4831 2 76.1294 2C69.7757 2 64.625 7.1507 64.625 13.5044C64.625 19.8581 69.7757 25.0088 76.1294 25.0088Z" fill="#03B2CF" stroke="black" stroke-width="3" stroke-linecap="round" stroke-linejoin="round"/>
<path d="M84.3847 41.742C84.3847 27.1663 69.3562 9.02197 50.8125 9.02197C32.2687 9.02197 17.2402 27.1663 17.2402 41.742C17.2402 56.3178 32.2687 68.1329 50.8125 68.1329C69.3562 68.1329 84.3847 56.3178 84.3847 41.742Z" fill="white" stroke="black" stroke-width="3" stroke-linecap="round" stroke-linejoin="round"/>
<path d="M74.5494 53.6459C74.5494 45.6478 63.9238 35.688 50.8216 35.688C37.7193 35.688 27.0938 45.6478 27.0938 53.6459C27.0938 61.6439 37.7193 68.1329 50.8216 68.1329C63.9238 68.1329 74.5494 61.6439 74.5494 53.6459Z" fill="white" stroke="black" stroke-width="2" stroke-linecap="round" stroke-linejoin="round"/>
<path d="M59.76 46.4645C59.76 48.6571 55.7565 51.3823 50.8121 51.3823C45.8677 51.3823 41.8643 48.6571 41.8643 46.4645C41.8643 44.272 45.8677 42.4966 50.8121 42.4966C55.7565 42.4966 59.76 44.272 59.76 46.4645Z" fill="white" stroke="black" stroke-width="2" stroke-linecap="round" stroke-linejoin="round"/>
<path d="M38.8552 37.1258C40.8554 37.1258 42.4769 35.5043 42.4769 33.5041C42.4769 31.5038 40.8554 29.8823 38.8552 29.8823C36.8549 29.8823 35.2334 31.5038 35.2334 33.5041C35.2334 35.5043 36.8549 37.1258 38.8552 37.1258Z" fill="white" stroke="black" stroke-width="2" stroke-linecap="round" stroke-linejoin="round"/>
<path d="M62.7702 37.1258C64.7704 37.1258 66.392 35.5043 66.392 33.5041C66.392 31.5038 64.7704 29.8823 62.7702 29.8823C60.77 29.8823 59.1484 31.5038 59.1484 33.5041C59.1484 35.5043 60.77 37.1258 62.7702 37.1258Z" fill="white" stroke="black" stroke-width="2" stroke-linecap="round" stroke-linejoin="round"/>
<path d="M61.0222 57.853C54.0538 60.7291 46.8724 60.5959 39.9219 57.4624L61.0222 57.853Z" fill="white"/>
<path d="M61.0222 57.853C54.0538 60.7291 46.8724 60.5959 39.9219 57.4624" stroke="black" stroke-width="2" stroke-linecap="round" stroke-linejoin="round"/>
<path d="M33.7434 91.6029C34.0452 90.8928 34.3737 90.2093 34.7376 89.5435C37.738 84.0754 42.8954 80.4536 51.1598 80.4536C57.5067 80.4536 62.1227 82.0071 65.4071 84.6612C67.5731 86.41 69.1709 88.6381 70.3072 91.2212C70.6622 92.0379 70.9729 92.8812 71.2481 93.76C71.47 94.4968 71.6653 95.2513 71.8429 96.0325C72.4465 98.8287 72.7039 101.873 72.7039 105.069C72.7039 121.988 66.5523 129.685 51.1687 129.685C38.8654 129.685 29.6334 123.533 31.1691 103.533" fill="white"/>
<path d="M33.7434 91.6029C34.0452 90.8928 34.3737 90.2093 34.7376 89.5435C37.738 84.0754 42.8954 80.4536 51.1598 80.4536C57.5067 80.4536 62.1227 82.0071 65.4071 84.6612C67.5731 86.41 69.1709 88.6381 70.3072 91.2212C70.6622 92.0379 70.9729 92.8812 71.2481 93.76C71.47 94.4968 71.6653 95.2513 71.8429 96.0325C72.4465 98.8287 72.7039 101.873 72.7039 105.069C72.7039 121.988 66.5523 129.685 51.1687 129.685C38.8654 129.685 29.6334 123.533 31.1691 103.533" stroke="black" stroke-width="2" stroke-linecap="round" stroke-linejoin="round"/>
<path d="M20.9776 132.259C26.2327 136.688 35.7487 138.686 39.4059 134.345C43.0632 130.004 39.4769 120.967 34.2218 116.538C28.9668 112.108 21.7321 112.037 18.0749 116.378C14.4176 120.719 15.7136 127.829 20.9776 132.259Z" fill="white" stroke="black" stroke-width="3" stroke-linecap="round" stroke-linejoin="round"/>
<path d="M86.685 132.259C81.4299 136.688 71.9139 138.686 68.2566 134.345C64.5994 130.004 68.1856 120.967 73.4407 116.538C78.6958 112.108 85.9304 112.037 89.5877 116.378C93.2449 120.719 91.9489 127.829 86.685 132.259Z" fill="white" stroke="black" stroke-width="3" stroke-linecap="round" stroke-linejoin="round"/>
<path d="M145.992 38.0933H138.011C138.011 46.9701 130.715 54.1692 121.722 54.1692C112.73 54.1692 105.433 46.9701 105.433 38.0933H97.4531C97.4531 50.0415 106.312 59.9392 117.905 61.7501V68.461H125.548V61.7501C137.142 59.9392 146.001 50.0415 146.001 38.0933H145.992Z" fill="#03B2CF" stroke="black" stroke-width="3" stroke-linecap="round" stroke-linejoin="round"/>
<path d="M114.186 14.1169H109.898C108.416 14.1169 107.2 12.9007 107.2 11.4183C107.2 9.93586 108.416 8.71973 109.898 8.71973H114.186C115.668 8.71973 116.884 9.93586 116.884 11.4183C116.884 12.9007 115.668 14.1169 114.186 14.1169Z" fill="white" stroke="black" stroke-width="2" stroke-linecap="round" stroke-linejoin="round"/>
<path d="M133.333 14.1169H129.046C127.563 14.1169 126.347 12.9007 126.347 11.4183C126.347 9.93586 127.563 8.71973 129.046 8.71973H133.333C134.816 8.71973 136.032 9.93586 136.032 11.4183C136.032 12.9007 134.816 14.1169 133.333 14.1169Z" fill="white" stroke="black" stroke-width="2" stroke-linecap="round" stroke-linejoin="round"/>
<path d="M101.093 38.0934V15.7859C101.093 13.3802 103.09 11.4185 105.522 11.4185H107.2" stroke="black" stroke-width="2" stroke-linecap="round" stroke-linejoin="round"/>
<path d="M142.139 38.0934V15.7859C142.139 13.3802 140.142 11.4185 137.709 11.4185H136.032" stroke="black" stroke-width="2" stroke-linecap="round" stroke-linejoin="round"/>
<path d="M93.8134 90.9816C92.0735 88.647 91.1592 86.1348 91.1592 83.0279V78.918" stroke="black" stroke-width="2" stroke-linecap="round" stroke-linejoin="round"/>
<path d="M121.722 68.4609V83.2764C121.722 91.0348 115.287 97.3817 107.431 97.3817" stroke="black" stroke-width="3" stroke-linecap="round" stroke-linejoin="round"/>
<path d="M91.5856 79.1666C95.9832 79.1666 99.5481 75.6494 99.5481 71.3106C99.5481 66.9718 95.9832 63.4546 91.5856 63.4546C87.188 63.4546 83.623 66.9718 83.623 71.3106C83.623 75.6494 87.188 79.1666 91.5856 79.1666Z" fill="#03B2CF" stroke="black" stroke-width="2" stroke-linecap="round" stroke-linejoin="round"/>
<path d="M32.7046 98.9171C33.5528 98.9171 34.2403 98.2295 34.2403 97.3814C34.2403 96.5333 33.5528 95.8457 32.7046 95.8457C31.8565 95.8457 31.1689 96.5333 31.1689 97.3814C31.1689 98.2295 31.8565 98.9171 32.7046 98.9171Z" fill="black"/>
<path d="M100.391 98.9171C101.239 98.9171 101.927 98.2295 101.927 97.3814C101.927 96.5333 101.239 95.8457 100.391 95.8457C99.543 95.8457 98.8555 96.5333 98.8555 97.3814C98.8555 98.2295 99.543 98.9171 100.391 98.9171Z" fill="black"/>
</svg>
