<svg width="157" height="118" viewBox="0 0 109 102" fill="none" xmlns="http://www.w3.org/2000/svg"><path d="M78.847 86.521a7.07 7.07 0 0 1-7.687 5.049l.023-.455a1.391 1.391 0 0 0-1.365-1.425 1.387 1.387 0 0 0-1.425 1.365c-.121 5.321-3.639 7.201-6.656 7.201h-.083c-3.146-.038-6.33-2.107-6.33-5.996V63.355a13.358 13.358 0 0 0 10.03 4.563c1.015 0 2.038-.114 3.054-.356 3.503 1.205 5.511 4.965 4.496 8.574-1.046 3.745-4.95 5.935-8.695 4.89a1.401 1.401 0 0 0-1.721.97 1.403 1.403 0 0 0 .962 1.72c.888.25 1.774.364 2.654.364a9.87 9.87 0 0 0 8.998-5.852c3.047 1.463 4.692 4.958 3.73 8.308l.015-.015Zm2.926-3.563c-.546-3.26-2.729-6.132-5.898-7.46.478-3.638-1.13-7.2-4.033-9.285a13.302 13.302 0 0 0 5.656-6.224c6.269-.705 12.015 3.714 12.902 10.006.841 5.944-2.957 11.485-8.627 12.97v-.007Zm17.58-38.1a7.987 7.987 0 0 1-5.352.621c.803-4.04-1.35-8.217-5.307-9.81a1.394 1.394 0 0 0-1.038 2.585 5.966 5.966 0 0 1 3.297 7.756 5.905 5.905 0 0 1-3.199 3.252 5.917 5.917 0 0 1-4.563.038 1.394 1.394 0 0 0-1.812.773c-.288.713.06 1.524.773 1.82a8.801 8.801 0 0 0 3.275.636 8.81 8.81 0 0 0 3.419-.697 8.657 8.657 0 0 0 4.177-3.722c.917.242 1.85.364 2.774.364a10.82 10.82 0 0 0 3.32-.531 8.764 8.764 0 0 1 2.154 9.408 8.776 8.776 0 0 1-4.587 4.958 8.743 8.743 0 0 1-6.489.348c-2.774-3.51-7.11-5.663-11.795-5.526a13.106 13.106 0 0 0-.395-6.58c-2.236-6.982-9.74-10.84-16.723-8.597a1.393 1.393 0 1 0 .85 2.654c5.518-1.774 11.446 1.28 13.213 6.792 1.766 5.519-1.281 11.447-6.793 13.213-.09.03-.182.053-.28.083-.16.016-.311.053-.463.122-5.298 1.288-10.787-1.729-12.477-6.997 0-.015-.008-.023-.016-.038V17.795c0-4.01 2.138-7.376 5.572-8.779 3.207-1.311 6.732-.553 9.218 1.979a1.39 1.39 0 1 0 1.987-1.949c-.486-.5-1.009-.94-1.555-1.334a9.292 9.292 0 0 1 5.496-3.388c2.449-.493 4.95 0 7.035 1.372 4.306 2.85 5.481 8.672 2.63 12.978a1.393 1.393 0 0 0 .395 1.933c.235.16.5.227.766.227.447 0 .894-.22 1.167-.621a12.083 12.083 0 0 0 1.721-4.033c3.76-1.039 7.717 1.069 8.922 4.814a7.254 7.254 0 0 1-.462 5.579 7.284 7.284 0 0 1-4.275 3.624 7.251 7.251 0 0 1-5.58-.463 7.265 7.265 0 0 1-3.616-4.26 9.784 9.784 0 0 0-4.465-5.981 9.762 9.762 0 0 0-7.452-1.115c-5.268 1.312-8.483 6.671-7.171 11.932a1.39 1.39 0 0 0 1.35 1.054c.113 0 .227-.015.34-.045.75-.19 1.198-.94 1.016-1.69-.94-3.776 1.365-7.612 5.14-8.552a7.006 7.006 0 0 1 5.337.796 7.006 7.006 0 0 1 3.214 4.336c0 .015.007.03.015.046 0 .015 0 .03.008.045.826 2.57 2.6 4.67 5.003 5.898a10.088 10.088 0 0 0 7.71.637 10.033 10.033 0 0 0 4.275-2.699 8.026 8.026 0 0 1 4.01 3.851 8.098 8.098 0 0 1 .387 6.193 8.078 8.078 0 0 1-4.109 4.655l.008.023Z" fill="#fff"/><path d="M46.029 93.725c-3.912-2.707-12.524-9.037-21.037-17.785C14.501 65.168 2 48.4 2 29.72 2 16.09 13.09 5 26.713 5c7.58 0 14.593 3.381 19.316 9.302v79.422Z" fill="#03B2CF"/><mask id="a" fill="#fff"><path d="M48.782 70.951V15.134c0-.303-.099-.606-.288-.849C43.324 7.561 35.508 3.703 27.04 3.703 12.13 3.703 0 15.832 0 30.743c0 8.543 2.479 17.383 7.36 26.26 3.875 7.05 9.272 14.138 16.034 21.074 11.477 11.78 23.136 19.18 23.25 19.255.227.144.485.212.743.212.235 0 .462-.06.675-.174.447-.243.72-.713.72-1.22v-22m-2.79 0v19.384c-3.843-2.653-12.288-8.87-20.642-17.45C15.055 65.515 2.79 49.065 2.79 30.734c0-13.372 10.878-24.25 24.25-24.25 7.437 0 14.32 3.32 18.952 9.12v55.338"/></mask><path d="M48.782 70.951V15.134c0-.303-.099-.606-.288-.849C43.324 7.561 35.508 3.703 27.04 3.703 12.13 3.703 0 15.832 0 30.743c0 8.543 2.479 17.383 7.36 26.26 3.875 7.05 9.272 14.138 16.034 21.074 11.477 11.78 23.136 19.18 23.25 19.255.227.144.485.212.743.212.235 0 .462-.06.675-.174.447-.243.72-.713.72-1.22v-22m-2.79 0v19.384c-3.843-2.653-12.288-8.87-20.642-17.45C15.055 65.515 2.79 49.065 2.79 30.734c0-13.372 10.878-24.25 24.25-24.25 7.437 0 14.32 3.32 18.952 9.12v55.338" fill="#081628"/><path d="m48.494 14.285-.793.61.005.006.788-.616ZM7.36 57.003l.876-.482-.876.482Zm16.033 21.074.716-.698-.716.698Zm23.25 19.255-.555.832.01.006.01.007.535-.845Zm1.418.038.472.881.004-.002-.476-.88Zm-2.07-3.836-.568.823 1.568 1.082v-1.905h-1ZM25.35 76.084l.716-.698-.716.697Zm20.642-60.48h1v-.35l-.218-.274-.782.624Zm3.79 55.347V15.134h-2v55.817h2Zm0-55.817c0-.515-.167-1.037-.5-1.464l-1.576 1.23a.385.385 0 0 1 .076.234h2Zm-.495-1.458C43.926 6.706 35.82 2.703 27.04 2.703v2c8.156 0 15.68 3.713 20.661 10.192l1.585-1.22ZM27.04 2.703C11.577 2.703-1 15.28-1 30.743h2c0-14.359 11.681-26.04 26.04-26.04v-2ZM-1 30.743c0 8.74 2.537 17.744 7.485 26.741l1.752-.963C3.421 47.764 1 39.089 1 30.743h-2Zm7.484 26.741c3.926 7.144 9.382 14.303 16.194 21.291l1.432-1.396C17.398 70.494 12.06 63.477 8.237 56.52l-1.753.963Zm16.194 21.29c5.781 5.935 11.605 10.762 15.995 14.114a137.33 137.33 0 0 0 5.337 3.883 92.024 92.024 0 0 0 2.08 1.393l1.109-1.664c-.11-.074-11.691-7.423-23.089-19.12l-1.432 1.395Zm23.431 19.403c.398.252.843.367 1.278.367v-2a.383.383 0 0 1-.208-.057l-1.07 1.69Zm1.278.367c.412 0 .8-.107 1.147-.293l-.945-1.763a.422.422 0 0 1-.202.056v2Zm1.151-.295a2.385 2.385 0 0 0 1.244-2.1h-2c0 .15-.08.278-.197.342l.953 1.758Zm1.244-2.1V74.15h-2v22h2Zm-4.79-21.999v19.384h2V74.15h-2Zm1.568 18.561c-3.812-2.632-12.2-8.807-20.494-17.325l-1.433 1.395c8.415 8.644 16.917 14.901 20.791 17.576l1.136-1.646ZM26.066 75.385C15.806 64.854 3.79 48.651 3.79 30.735h-2c0 18.745 12.514 35.443 22.844 46.046l1.432-1.396ZM3.79 30.735c0-12.82 10.43-23.25 23.25-23.25v-2c-13.924 0-25.25 11.326-25.25 25.25h2Zm23.25-23.25c7.133 0 13.728 3.181 18.17 8.743l1.563-1.248c-4.82-6.036-11.991-9.495-19.733-9.495v2Zm17.952 8.12v55.338h2V15.605h-2Z" fill="#000" mask="url(#a)"/><mask id="b" maskUnits="userSpaceOnUse" x="51.883" y="0" width="57" height="102" fill="#000"><path fill="#fff" d="M51.883 0h57v102h-57z"/><path d="M106.44 40.772a10.831 10.831 0 0 0-.515-8.324 10.817 10.817 0 0 0-4.882-4.942 10.038 10.038 0 0 0 .629-7.702c-1.554-4.83-6.42-7.695-11.28-6.883a12.137 12.137 0 0 0-5.428-9.893 12.056 12.056 0 0 0-9.127-1.782 12.028 12.028 0 0 0-7.414 4.76c-2.6-1.022-5.503-1.03-8.232.084-4.503 1.842-7.308 6.194-7.308 11.364v74.45c0 5.64 4.685 8.74 9.09 8.786h.105c3.692 0 7.634-2.115 8.968-6.717.455.061.902.091 1.357.091 4.276 0 8.225-2.812 9.46-7.125.145-.493.243-.986.304-1.479 7.376-1.569 12.402-8.627 11.333-16.207a14.402 14.402 0 0 0-1.046-3.722c.296.022.591.037.88.037 1.652 0 3.297-.356 4.843-1.068a11.524 11.524 0 0 0 6.042-6.52c1.494-4.04.652-8.46-2.115-11.636a10.842 10.842 0 0 0 4.329-5.572h.007ZM79.188 86.18a7.07 7.07 0 0 1-7.687 5.05l.023-.456a1.396 1.396 0 0 0-2.79-.06c-.121 5.321-3.639 7.201-6.656 7.201h-.083c-3.146-.038-6.338-2.107-6.338-5.996V63.014a13.358 13.358 0 0 0 10.03 4.563c1.015 0 2.039-.12 3.062-.356 3.502 1.205 5.511 4.965 4.496 8.574-1.054 3.745-4.95 5.936-8.696 4.89a1.403 1.403 0 0 0-1.72.962 1.403 1.403 0 0 0 .962 1.721 9.73 9.73 0 0 0 2.654.364 9.87 9.87 0 0 0 8.998-5.852c3.047 1.463 4.692 4.957 3.73 8.308l.015-.008Zm2.926-3.563c-.546-3.26-2.73-6.132-5.898-7.459a9.875 9.875 0 0 0-4.033-9.286 13.338 13.338 0 0 0 5.655-6.224c6.27-.705 12.016 3.722 12.903 10.006.841 5.944-2.957 11.485-8.627 12.971v-.007Zm17.58-38.1a8.032 8.032 0 0 1-5.352.621c.803-4.04-1.35-8.217-5.307-9.809a1.394 1.394 0 0 0-1.812.773 1.399 1.399 0 0 0 .774 1.82 5.966 5.966 0 0 1 3.297 7.755 5.905 5.905 0 0 1-3.199 3.252 5.917 5.917 0 0 1-4.563.038 1.394 1.394 0 0 0-1.039 2.585 8.801 8.801 0 0 0 3.275.637 9.01 9.01 0 0 0 3.419-.698 8.658 8.658 0 0 0 4.177-3.722c.917.243 1.85.364 2.774.364 1.122 0 2.237-.182 3.32-.53a8.763 8.763 0 0 1 2.154 9.407 8.776 8.776 0 0 1-4.587 4.958 8.725 8.725 0 0 1-6.481.348c-2.775-3.51-7.111-5.662-11.796-5.526a13.106 13.106 0 0 0-.394-6.58c-2.236-6.982-9.741-10.84-16.723-8.596a1.393 1.393 0 1 0 .849 2.653c5.519-1.774 11.447 1.28 13.213 6.792 1.766 5.519-1.281 11.447-6.792 13.213-.091.03-.182.053-.28.084a1.35 1.35 0 0 0-.456.12c-5.298 1.29-10.787-1.727-12.477-6.996 0-.015-.008-.023-.016-.038V17.454c0-4.01 2.138-7.376 5.572-8.779 3.207-1.311 6.74-.553 9.219 1.979a1.391 1.391 0 0 0 1.97.023 1.391 1.391 0 0 0 .023-1.971c-.485-.5-1.008-.94-1.554-1.335a9.329 9.329 0 0 1 5.496-3.388c2.449-.493 4.95 0 7.035 1.372 4.298 2.85 5.48 8.672 2.623 12.97a1.393 1.393 0 0 0 .394 1.934 1.384 1.384 0 0 0 1.925-.387 11.932 11.932 0 0 0 1.722-4.033c3.76-1.038 7.717 1.069 8.922 4.814a7.254 7.254 0 0 1-.463 5.58 7.284 7.284 0 0 1-4.275 3.623 7.251 7.251 0 0 1-5.58-.463 7.265 7.265 0 0 1-3.615-4.26 9.8 9.8 0 0 0-4.458-5.981 9.762 9.762 0 0 0-7.452-1.114c-5.268 1.311-8.483 6.67-7.163 11.931.159.637.727 1.062 1.349 1.062.114 0 .227-.015.341-.046a1.393 1.393 0 0 0 1.016-1.69c-.94-3.775 1.364-7.611 5.14-8.551a7.006 7.006 0 0 1 5.336.796 7.005 7.005 0 0 1 3.215 4.336c0 .015.007.03.015.045 0 .016 0 .03.007.046.827 2.57 2.6 4.67 5.004 5.898a10.087 10.087 0 0 0 7.71.637 10.033 10.033 0 0 0 4.275-2.7 8.026 8.026 0 0 1 4.01 3.852 8.062 8.062 0 0 1 .387 6.193 8.077 8.077 0 0 1-4.11 4.655l-.014.015Z"/></mask><path d="M106.44 40.772a10.831 10.831 0 0 0-.515-8.324 10.817 10.817 0 0 0-4.882-4.942 10.038 10.038 0 0 0 .629-7.702c-1.554-4.83-6.42-7.695-11.28-6.883a12.137 12.137 0 0 0-5.428-9.893 12.056 12.056 0 0 0-9.127-1.782 12.028 12.028 0 0 0-7.414 4.76c-2.6-1.022-5.503-1.03-8.232.084-4.503 1.842-7.308 6.194-7.308 11.364v74.45c0 5.64 4.685 8.74 9.09 8.786h.105c3.692 0 7.634-2.115 8.968-6.717.455.061.902.091 1.357.091 4.276 0 8.225-2.812 9.46-7.125.145-.493.243-.986.304-1.479 7.376-1.569 12.402-8.627 11.333-16.207a14.402 14.402 0 0 0-1.046-3.722c.296.022.591.037.88.037 1.652 0 3.297-.356 4.843-1.068a11.524 11.524 0 0 0 6.042-6.52c1.494-4.04.652-8.46-2.115-11.636a10.842 10.842 0 0 0 4.329-5.572h.007ZM79.188 86.18a7.07 7.07 0 0 1-7.687 5.05l.023-.456a1.396 1.396 0 0 0-2.79-.06c-.121 5.321-3.639 7.201-6.656 7.201h-.083c-3.146-.038-6.338-2.107-6.338-5.996V63.014a13.358 13.358 0 0 0 10.03 4.563c1.015 0 2.039-.12 3.062-.356 3.502 1.205 5.511 4.965 4.496 8.574-1.054 3.745-4.95 5.936-8.696 4.89a1.403 1.403 0 0 0-1.72.962 1.403 1.403 0 0 0 .962 1.721 9.73 9.73 0 0 0 2.654.364 9.87 9.87 0 0 0 8.998-5.852c3.047 1.463 4.692 4.957 3.73 8.308l.015-.008Zm2.926-3.563c-.546-3.26-2.73-6.132-5.898-7.459a9.875 9.875 0 0 0-4.033-9.286 13.338 13.338 0 0 0 5.655-6.224c6.27-.705 12.016 3.722 12.903 10.006.841 5.944-2.957 11.485-8.627 12.971v-.007Zm17.58-38.1a8.032 8.032 0 0 1-5.352.621c.803-4.04-1.35-8.217-5.307-9.809a1.394 1.394 0 0 0-1.812.773 1.399 1.399 0 0 0 .774 1.82 5.966 5.966 0 0 1 3.297 7.755 5.905 5.905 0 0 1-3.199 3.252 5.917 5.917 0 0 1-4.563.038 1.394 1.394 0 0 0-1.039 2.585 8.801 8.801 0 0 0 3.275.637 9.01 9.01 0 0 0 3.419-.698 8.658 8.658 0 0 0 4.177-3.722c.917.243 1.85.364 2.774.364 1.122 0 2.237-.182 3.32-.53a8.763 8.763 0 0 1 2.154 9.407 8.776 8.776 0 0 1-4.587 4.958 8.725 8.725 0 0 1-6.481.348c-2.775-3.51-7.111-5.662-11.796-5.526a13.106 13.106 0 0 0-.394-6.58c-2.236-6.982-9.741-10.84-16.723-8.596a1.393 1.393 0 1 0 .849 2.653c5.519-1.774 11.447 1.28 13.213 6.792 1.766 5.519-1.281 11.447-6.792 13.213-.091.03-.182.053-.28.084a1.35 1.35 0 0 0-.456.12c-5.298 1.29-10.787-1.727-12.477-6.996 0-.015-.008-.023-.016-.038V17.454c0-4.01 2.138-7.376 5.572-8.779 3.207-1.311 6.74-.553 9.219 1.979a1.391 1.391 0 0 0 1.97.023 1.391 1.391 0 0 0 .023-1.971c-.485-.5-1.008-.94-1.554-1.335a9.329 9.329 0 0 1 5.496-3.388c2.449-.493 4.95 0 7.035 1.372 4.298 2.85 5.48 8.672 2.623 12.97a1.393 1.393 0 0 0 .394 1.934 1.384 1.384 0 0 0 1.925-.387 11.932 11.932 0 0 0 1.722-4.033c3.76-1.038 7.717 1.069 8.922 4.814a7.254 7.254 0 0 1-.463 5.58 7.284 7.284 0 0 1-4.275 3.623 7.251 7.251 0 0 1-5.58-.463 7.265 7.265 0 0 1-3.615-4.26 9.8 9.8 0 0 0-4.458-5.981 9.762 9.762 0 0 0-7.452-1.114c-5.268 1.311-8.483 6.67-7.163 11.931.159.637.727 1.062 1.349 1.062.114 0 .227-.015.341-.046a1.393 1.393 0 0 0 1.016-1.69c-.94-3.775 1.364-7.611 5.14-8.551a7.006 7.006 0 0 1 5.336.796 7.005 7.005 0 0 1 3.215 4.336c0 .015.007.03.015.045 0 .016 0 .03.007.046.827 2.57 2.6 4.67 5.004 5.898a10.087 10.087 0 0 0 7.71.637 10.033 10.033 0 0 0 4.275-2.7 8.026 8.026 0 0 1 4.01 3.852 8.062 8.062 0 0 1 .387 6.193 8.077 8.077 0 0 1-4.11 4.655l-.014.015Z" fill="#081628"/><path d="M106.44 40.772a10.831 10.831 0 0 0-.515-8.324 10.817 10.817 0 0 0-4.882-4.942 10.038 10.038 0 0 0 .629-7.702c-1.554-4.83-6.42-7.695-11.28-6.883a12.137 12.137 0 0 0-5.428-9.893 12.056 12.056 0 0 0-9.127-1.782 12.028 12.028 0 0 0-7.414 4.76c-2.6-1.022-5.503-1.03-8.232.084-4.503 1.842-7.308 6.194-7.308 11.364v74.45c0 5.64 4.685 8.74 9.09 8.786h.105c3.692 0 7.634-2.115 8.968-6.717.455.061.902.091 1.357.091 4.276 0 8.225-2.812 9.46-7.125.145-.493.243-.986.304-1.479 7.376-1.569 12.402-8.627 11.333-16.207a14.402 14.402 0 0 0-1.046-3.722c.296.022.591.037.88.037 1.652 0 3.297-.356 4.843-1.068a11.524 11.524 0 0 0 6.042-6.52c1.494-4.04.652-8.46-2.115-11.636a10.842 10.842 0 0 0 4.329-5.572h.007ZM79.188 86.18a7.07 7.07 0 0 1-7.687 5.05l.023-.456a1.396 1.396 0 0 0-2.79-.06c-.121 5.321-3.639 7.201-6.656 7.201h-.083c-3.146-.038-6.338-2.107-6.338-5.996V63.014a13.358 13.358 0 0 0 10.03 4.563c1.015 0 2.039-.12 3.062-.356 3.502 1.205 5.511 4.965 4.496 8.574-1.054 3.745-4.95 5.936-8.696 4.89a1.403 1.403 0 0 0-1.72.962 1.403 1.403 0 0 0 .962 1.721 9.73 9.73 0 0 0 2.654.364 9.87 9.87 0 0 0 8.998-5.852c3.047 1.463 4.692 4.957 3.73 8.308l.015-.008Zm2.926-3.563c-.546-3.26-2.73-6.132-5.898-7.459a9.875 9.875 0 0 0-4.033-9.286 13.338 13.338 0 0 0 5.655-6.224c6.27-.705 12.016 3.722 12.903 10.006.841 5.944-2.957 11.485-8.627 12.971v-.007Zm17.58-38.1a8.032 8.032 0 0 1-5.352.621c.803-4.04-1.35-8.217-5.307-9.809a1.394 1.394 0 0 0-1.812.773 1.399 1.399 0 0 0 .774 1.82 5.966 5.966 0 0 1 3.297 7.755 5.905 5.905 0 0 1-3.199 3.252 5.917 5.917 0 0 1-4.563.038 1.394 1.394 0 0 0-1.039 2.585 8.801 8.801 0 0 0 3.275.637 9.01 9.01 0 0 0 3.419-.698 8.658 8.658 0 0 0 4.177-3.722c.917.243 1.85.364 2.774.364 1.122 0 2.237-.182 3.32-.53a8.763 8.763 0 0 1 2.154 9.407 8.776 8.776 0 0 1-4.587 4.958 8.725 8.725 0 0 1-6.481.348c-2.775-3.51-7.111-5.662-11.796-5.526a13.106 13.106 0 0 0-.394-6.58c-2.236-6.982-9.741-10.84-16.723-8.596a1.393 1.393 0 1 0 .849 2.653c5.519-1.774 11.447 1.28 13.213 6.792 1.766 5.519-1.281 11.447-6.792 13.213-.091.03-.182.053-.28.084a1.35 1.35 0 0 0-.456.12c-5.298 1.29-10.787-1.727-12.477-6.996 0-.015-.008-.023-.016-.038V17.454c0-4.01 2.138-7.376 5.572-8.779 3.207-1.311 6.74-.553 9.219 1.979a1.391 1.391 0 0 0 1.97.023 1.391 1.391 0 0 0 .023-1.971c-.485-.5-1.008-.94-1.554-1.335a9.329 9.329 0 0 1 5.496-3.388c2.449-.493 4.95 0 7.035 1.372 4.298 2.85 5.48 8.672 2.623 12.97a1.393 1.393 0 0 0 .394 1.934 1.384 1.384 0 0 0 1.925-.387 11.932 11.932 0 0 0 1.722-4.033c3.76-1.038 7.717 1.069 8.922 4.814a7.254 7.254 0 0 1-.463 5.58 7.284 7.284 0 0 1-4.275 3.623 7.251 7.251 0 0 1-5.58-.463 7.265 7.265 0 0 1-3.615-4.26 9.8 9.8 0 0 0-4.458-5.981 9.762 9.762 0 0 0-7.452-1.114c-5.268 1.311-8.483 6.67-7.163 11.931.159.637.727 1.062 1.349 1.062.114 0 .227-.015.341-.046a1.393 1.393 0 0 0 1.016-1.69c-.94-3.775 1.364-7.611 5.14-8.551a7.006 7.006 0 0 1 5.336.796 7.005 7.005 0 0 1 3.215 4.336c0 .015.007.03.015.045 0 .016 0 .03.007.046.827 2.57 2.6 4.67 5.004 5.898a10.087 10.087 0 0 0 7.71.637 10.033 10.033 0 0 0 4.275-2.7 8.026 8.026 0 0 1 4.01 3.852 8.062 8.062 0 0 1 .387 6.193 8.077 8.077 0 0 1-4.11 4.655l-.014.015Z" stroke="#000" stroke-width="2" mask="url(#b)"/></svg>