<svg width="49" height="49" viewBox="0 0 49 49" fill="none" xmlns="http://www.w3.org/2000/svg">
<path d="M7.94864 7.62207H31.6864C34.5175 7.62207 36.9131 9.90874 36.9131 12.8487V17.8576C36.9131 18.1843 36.5864 18.511 36.2598 18.511C35.9331 18.511 35.6064 18.1843 35.6064 17.8576V12.8487C35.6064 10.671 33.8642 8.92874 31.6864 8.92874H7.94864C5.77086 8.92874 4.02864 10.671 4.02864 12.8487V27.8754C4.02864 30.0532 5.77086 31.7954 7.94864 31.7954H9.25531C9.90864 31.7954 10.4531 32.3398 10.4531 32.9932V38.6554L16.9864 32.1221C17.2042 31.9043 17.5309 31.7954 17.8575 31.7954H19.8175C20.1442 31.7954 20.4709 32.1221 20.4709 32.4487C20.4709 32.7754 20.1442 33.1021 19.8175 33.1021H17.8575L11.2153 39.7443C10.9975 39.9621 10.6709 40.071 10.3442 40.071C10.2353 40.071 10.0175 40.071 9.90864 39.9621C9.47308 39.7443 9.14642 39.3087 9.14642 38.8732V33.1021H7.94864C5.11753 33.1021 2.72197 30.8154 2.72197 27.8754V12.8487C2.72197 10.0176 5.00864 7.62207 7.94864 7.62207Z" fill="#045076"/>
<path d="M23.9555 29.2912L26.7866 27.7668C31.1421 25.4801 33.6466 19.2734 33.7555 19.2734C33.8643 19.0557 34.0821 18.8379 34.2999 18.8379C34.5177 18.8379 34.8443 18.9468 34.9532 19.1646L37.4577 23.9557C38.6555 23.629 40.071 24.1734 40.7243 25.3712C41.051 26.0246 41.1599 26.7868 40.9421 27.549C40.7243 28.0934 40.5066 28.529 40.071 28.8557L42.4666 33.6468C42.5755 33.8646 42.5755 34.1912 42.3577 34.409C42.2488 34.6268 41.9221 34.7357 41.7043 34.6268C41.5955 34.6268 35.171 33.2112 30.7066 35.4979L30.4888 39.9623C30.4888 40.7246 29.9443 41.269 29.1821 41.3779C29.0732 41.3779 29.0732 41.3779 28.9643 41.3779C28.311 41.3779 27.7666 40.9423 27.5488 40.289L26.7866 37.349C26.4599 37.4579 26.1332 37.4579 25.8066 37.4579C24.2821 37.4579 22.7577 36.5868 21.9955 35.1712C21.0155 33.1023 21.7777 30.3801 23.9555 29.2912ZM39.5266 26.0246C39.1999 25.4801 38.6555 25.1534 38.111 25.2623L39.4177 27.6579C39.6355 27.2223 39.7443 26.569 39.5266 26.0246ZM38.0021 32.8846C39.091 32.8846 40.071 32.9934 40.7243 33.1023L34.4088 21.0157C34.0821 21.669 33.6466 22.5401 33.1021 23.4112C31.5777 25.8068 29.8355 27.549 28.0932 28.6379L30.9243 34.0823C32.6666 33.2112 35.0621 32.7757 38.0021 32.8846ZM28.9643 39.9623C28.9643 39.9623 28.9643 40.0712 29.0732 40.0712C29.1821 40.0712 29.1821 39.9623 29.1821 39.9623L29.3999 36.2601L28.2021 36.9134L28.9643 39.9623ZM23.3021 34.5179C23.6288 35.2801 24.2821 35.7157 25.0443 36.0423C25.8066 36.2601 26.6777 36.2601 27.331 35.8246L29.5088 34.6268L26.6777 29.2912L24.4999 30.489C23.0843 31.2512 22.5399 33.1023 23.3021 34.5179Z" fill="#045076"/>
<path d="M30.5976 29.2911C30.3798 29.2911 30.2709 29.1822 30.0531 29.0734C29.8353 28.7467 29.8353 28.42 30.162 28.0934C31.2509 27.2222 32.2309 26.0245 33.2109 24.6089C33.4287 24.2822 33.8642 24.1734 34.082 24.3911C34.4087 24.6089 34.5176 25.0445 34.2998 25.2622C33.3198 26.7867 32.2309 28.0934 31.0331 29.0734C30.8153 29.1822 30.7065 29.2911 30.5976 29.2911Z" fill="#045076"/>
<path d="M25.3708 30.9241L25.9152 30.5974C26.2419 30.3797 26.6775 30.5974 26.7864 30.9241C27.0041 31.2508 26.7864 31.6863 26.4597 31.7952L25.9152 32.1219C25.5886 32.2308 25.3708 32.4485 25.0441 32.7752C24.9352 32.8841 24.7175 32.993 24.6086 32.993C24.4997 32.993 24.2819 32.8841 24.173 32.7752C23.9553 32.5574 23.8464 32.1219 24.173 31.7952C24.4997 31.4685 24.9352 31.1419 25.3708 30.9241Z" fill="#045076"/>
<path d="M45.733 23.5198L43.0108 24.9354C42.793 25.0443 42.6841 25.0443 42.5753 25.0443C42.3575 25.0443 42.1397 24.9354 42.0308 24.7176C41.813 24.3909 42.0308 23.9554 42.3575 23.8465L45.0797 22.4309C45.4064 22.2131 45.8419 22.4309 45.9508 22.7576C46.1686 22.9754 45.9508 23.302 45.733 23.5198Z" fill="#045076"/>
<path d="M38.9814 21.6685C38.8725 21.9952 38.6548 22.1041 38.3281 22.1041C38.2192 22.1041 38.2192 22.1041 38.1103 22.1041C37.7836 21.9952 37.5659 21.6685 37.6748 21.233L38.5459 18.293C38.6548 17.9663 38.9814 17.7485 39.417 17.8574C39.7436 17.9663 39.9614 18.293 39.8525 18.7285L38.9814 21.6685Z" fill="#045076"/>
<path d="M42.0307 29.291C42.1396 28.9644 42.4662 28.7466 42.9018 28.8555L45.8418 29.7266C46.1684 29.8355 46.3862 30.1621 46.2773 30.5977C46.1684 30.9244 45.9507 31.0333 45.624 31.0333C45.5151 31.0333 45.5151 31.0333 45.4062 31.0333L42.4662 30.1621C42.1396 30.0533 41.9218 29.7266 42.0307 29.291Z" fill="#045076"/>
<path d="M40.8331 23.6289C40.7242 23.8466 40.5064 23.9555 40.2886 23.9555C40.1797 23.9555 40.0708 23.9555 39.962 23.8466C39.6353 23.6289 39.6353 23.1933 39.8531 22.9755L40.8331 21.56C41.0508 21.2333 41.4864 21.2333 41.7042 21.4511C42.0308 21.6689 42.0308 22.1044 41.8131 22.3222L40.8331 23.6289Z" fill="#045076"/>
<path d="M42.357 26.2421L44.0992 26.4599C44.4259 26.4599 44.7526 26.7865 44.6437 27.2221C44.6437 27.5488 44.317 27.7665 43.9903 27.7665H43.8815L42.1392 27.5488C41.8126 27.5488 41.4859 27.2221 41.5948 26.7865C41.7037 26.351 42.0303 26.1332 42.357 26.2421Z" fill="#045076"/>
<path d="M17.9666 25.9153V22.4308C17.9666 22.4308 17.9666 22.322 17.8577 22.322H14.3733C13.6111 22.322 13.0666 21.6686 13.0666 21.0153V19.382C13.0666 18.6197 13.7199 18.0753 14.3733 18.0753H17.8577C17.8577 18.0753 17.9666 18.0753 17.9666 17.9664V14.482C17.9666 13.7197 18.6199 13.1753 19.2733 13.1753H20.9066C21.6688 13.1753 22.2133 13.8286 22.2133 14.482V17.9664C22.2133 17.9664 22.2133 18.0753 22.3222 18.0753H25.8066C26.5688 18.0753 27.1133 18.7286 27.1133 19.382V21.0153C27.1133 21.7775 26.4599 22.322 25.8066 22.322H22.3222C22.3222 22.322 22.2133 22.322 22.2133 22.4308V25.9153C22.2133 26.6775 21.5599 27.222 20.9066 27.222H19.2733C18.6199 27.222 17.9666 26.6775 17.9666 25.9153ZM21.0155 25.9153V22.4308C21.0155 21.6686 21.6688 21.1242 22.3222 21.1242H25.8066C25.8066 21.1242 25.9155 21.1242 25.9155 21.0153V19.382C25.9155 19.382 25.9155 19.2731 25.8066 19.2731H22.3222C21.5599 19.2731 21.0155 18.6197 21.0155 17.9664V14.482C21.0155 14.482 21.0155 14.3731 20.9066 14.3731H19.2733C19.2733 14.3731 19.1644 14.3731 19.1644 14.482V17.9664C19.1644 18.7286 18.5111 19.2731 17.8577 19.2731H14.3733C14.3733 19.2731 14.2644 19.2731 14.2644 19.382V21.0153C14.2644 21.0153 14.2644 21.1242 14.3733 21.1242H17.8577C18.6199 21.1242 19.1644 21.7775 19.1644 22.4308V25.9153C19.1644 25.9153 19.1644 26.0242 19.2733 26.0242L21.0155 25.9153C21.0155 26.0242 21.0155 25.9153 21.0155 25.9153Z" fill="#045076"/>
</svg>
